<?xml version="1.0" standalone="no"?>
<!DOCTYPE svg PUBLIC "-//W3C//DTD SVG 20010904//EN"
 "http://www.w3.org/TR/2001/REC-SVG-20010904/DTD/svg10.dtd">
<svg version="1.0" xmlns="http://www.w3.org/2000/svg"
 width="1697.000000pt" height="1697.000000pt" viewBox="0 0 1697.000000 1697.000000"
 preserveAspectRatio="xMidYMid meet">
<metadata>
Created by potrace 1.14, written by Peter Selinger 2001-2017
</metadata>
<g transform="translate(0.000000,1697.000000) scale(0.100000,-0.100000)"
fill="#000000" stroke="none">
<path d="M5250 13165 c-19 -9 -49 -30 -67 -47 l-31 -30 -89 13 c-126 19 -339
16 -448 -5 -49 -10 -164 -42 -255 -72 -97 -32 -166 -50 -168 -44 -11 32 -73
108 -108 133 -83 58 -194 43 -238 -33 -30 -51 -33 -160 -6 -240 14 -40 18 -66
11 -68 -25 -8 -139 -105 -174 -147 -34 -40 -41 -44 -55 -33 -15 12 -16 11 -3
-4 12 -16 17 -14 65 29 55 50 147 113 193 132 l30 12 -20 57 c-15 44 -18 75
-15 136 5 74 7 81 37 108 17 15 40 28 51 28 59 0 125 -54 172 -142 17 -32 35
-58 39 -58 5 0 53 17 106 39 154 61 369 127 472 145 106 18 256 21 346 6 58
-9 60 -9 90 19 52 49 78 61 126 61 40 0 53 -5 78 -31 43 -43 57 -96 41 -154
-7 -25 -11 -47 -9 -48 2 -1 36 -17 74 -35 165 -79 296 -184 330 -267 32 -75
12 -188 -42 -235 -37 -33 -36 -39 3 -14 24 16 26 16 62 -13 57 -46 94 -123 95
-197 0 -33 -5 -77 -11 -97 -12 -35 -62 -91 -92 -103 -8 -3 -1 -4 15 -3 29 2
30 1 33 -50 7 -129 -132 -244 -231 -191 -19 10 -20 9 -9 -4 7 -9 25 -21 40
-27 27 -12 78 -91 116 -181 26 -62 26 -146 1 -189 -35 -59 -67 -76 -145 -76
l-69 0 17 -25 c56 -85 64 -129 33 -196 -33 -73 -121 -108 -211 -84 -33 9 -60
27 -101 69 -62 63 -86 117 -96 216 l-6 59 -23 -67 c-13 -37 -32 -80 -43 -96
-28 -38 -81 -63 -120 -55 -40 8 -81 56 -81 95 0 16 -3 29 -6 29 -3 0 -28 -20
-55 -44 -60 -54 -93 -64 -128 -38 -40 30 -61 74 -68 144 l-6 64 55 27 c30 15
65 39 79 53 l24 27 -50 -29 c-64 -37 -143 -40 -195 -6 -77 49 -99 54 -189 47
-76 -5 -90 -3 -118 14 -18 11 -41 38 -52 59 -21 42 -41 141 -41 208 0 22 -3
44 -6 47 -4 4 -31 -28 -60 -71 -120 -171 -234 -256 -351 -256 -52 -1 -65 3
-87 23 -33 31 -33 36 3 50 15 7 46 30 67 52 l39 40 -59 -30 c-130 -69 -244
-15 -247 116 0 30 -2 34 -9 18 -14 -33 -11 -105 6 -141 17 -35 81 -74 125 -74
16 -1 31 -11 44 -33 32 -50 78 -69 158 -64 88 6 177 49 258 126 47 45 62 54
66 42 48 -148 142 -212 258 -176 69 21 95 19 157 -10 29 -14 60 -25 69 -25 15
0 16 -11 11 -85 -4 -65 -1 -95 12 -128 40 -107 151 -143 235 -78 24 18 25 18
59 -5 69 -47 159 -26 218 51 l27 36 22 -60 c49 -134 146 -210 273 -211 141 -1
246 119 227 259 -6 47 -6 48 25 61 82 34 124 100 124 200 0 72 -26 142 -83
220 -17 23 -31 46 -31 51 0 4 20 15 44 24 53 20 119 86 141 139 11 25 16 60
14 95 -2 44 2 66 22 101 21 39 24 57 23 140 -1 112 -20 167 -81 227 -38 37
-38 39 -35 101 4 71 10 74 78 43 68 -31 114 -111 114 -199 l0 -34 32 27 c46
39 75 48 115 34 36 -12 63 -51 63 -93 0 -35 16 -41 46 -17 32 25 76 27 98 5
10 -9 16 -33 16 -60 l0 -45 34 6 c53 10 94 -16 108 -70 12 -43 14 -45 48 -45
48 0 100 -30 122 -71 25 -45 20 -169 -11 -254 -11 -32 -21 -62 -21 -66 0 -3
24 -6 53 -6 52 1 127 -26 134 -49 2 -5 -20 -18 -50 -27 -65 -21 -134 -64 -185
-116 -37 -38 -41 -40 -73 -31 -48 14 -124 12 -163 -4 -68 -28 -96 -105 -61
-166 20 -35 19 -37 -18 -49 -47 -16 -104 -66 -129 -114 -31 -58 -31 -165 -1
-223 26 -49 79 -98 126 -115 32 -11 34 -15 30 -48 -6 -43 27 -98 69 -119 25
-12 27 -16 21 -65 -6 -57 -6 -57 -95 -107 -83 -47 -204 -163 -250 -241 -53
-90 -70 -177 -72 -373 -1 -155 -2 -161 -21 -158 -28 4 -55 39 -55 72 0 15 11
43 24 63 l24 35 -28 12 c-47 19 -65 47 -63 95 2 51 14 78 55 121 l29 31 -61 6
c-33 4 -74 14 -91 23 -33 17 -59 66 -59 112 0 29 1 29 53 28 67 -1 132 35 167
93 14 22 30 39 35 36 65 -26 85 -28 129 -11 30 12 55 31 76 59 41 56 38 66 -6
17 -71 -79 -156 -73 -204 13 l-24 42 -12 -48 c-22 -88 -92 -157 -158 -157 -39
0 -91 24 -110 51 -21 30 -21 110 -1 152 14 28 14 30 1 13 -9 -11 -23 -39 -32
-62 -22 -59 -12 -108 32 -152 31 -31 34 -39 34 -92 0 -74 28 -119 88 -140 32
-11 41 -18 36 -30 -4 -8 -14 -42 -23 -75 -16 -60 -49 -122 -76 -145 -12 -10
-21 -8 -50 14 -19 15 -52 35 -74 44 -36 16 -161 150 -161 172 0 5 17 17 37 27
78 39 105 131 63 219 l-23 47 27 19 c39 29 56 70 56 134 0 40 -6 67 -21 91
-22 35 -83 73 -119 73 -14 0 -26 11 -35 33 -10 22 -14 26 -14 12 1 -37 14 -55
59 -77 55 -28 82 -72 82 -134 0 -55 -23 -91 -73 -116 -44 -23 -86 -23 -133 1
l-38 20 18 -21 c26 -29 76 -48 123 -48 52 0 71 -26 71 -98 0 -48 -4 -58 -34
-88 -31 -31 -40 -34 -90 -34 l-57 0 32 -40 c27 -33 34 -52 37 -99 4 -56 2 -61
-30 -96 -23 -26 -47 -40 -74 -45 l-39 -8 43 -1 c47 -1 46 0 31 -35 -14 -30
-60 -51 -95 -42 -23 6 -25 5 -17 -16 25 -72 -8 -142 -74 -154 -58 -11 -111 39
-79 75 24 26 20 29 -29 23 -28 -3 -50 0 -60 8 -20 17 -19 79 2 102 15 17 14
18 -29 18 -133 0 -176 176 -73 298 15 18 26 34 24 35 -2 2 -26 9 -54 16 -27 6
-58 20 -68 29 -68 61 -61 166 17 259 23 28 30 30 70 26 56 -7 115 20 174 78
46 46 87 121 78 144 -8 21 -25 19 -20 -3 6 -23 -31 -77 -79 -116 -31 -25 -49
-31 -102 -34 -36 -2 -75 -2 -89 2 -32 8 -56 61 -56 128 l-1 53 -35 -68 c-60
-117 -145 -180 -268 -197 -58 -8 -57 -9 29 -6 98 3 144 19 208 75 l33 30 26
-33 27 -34 -23 -21 c-35 -33 -75 -113 -82 -163 -4 -29 -1 -56 10 -82 30 -72
17 -286 -20 -313 -26 -19 -78 -16 -107 7 -14 11 -28 20 -31 20 -3 0 -6 -29 -6
-64 0 -54 -4 -70 -24 -93 l-24 -28 -37 18 -38 18 8 -23 c26 -79 14 -138 -38
-187 l-25 -23 19 -32 c23 -37 24 -77 4 -116 -14 -27 -13 -32 5 -68 16 -31 18
-45 11 -65 -19 -49 -90 -62 -117 -22 -12 18 -11 26 6 58 l20 37 -29 0 c-78 0
-116 45 -88 104 11 25 27 38 59 49 38 14 40 16 15 16 -36 1 -84 26 -97 50 -18
35 -12 87 16 120 14 17 20 31 14 31 -27 0 -70 43 -81 80 -10 34 -9 44 9 79
l22 41 -28 14 c-15 8 -38 26 -52 41 -21 22 -25 36 -25 88 0 34 4 69 8 78 6 12
1 19 -22 29 -33 13 -101 82 -101 102 0 6 -3 9 -6 6 -9 -9 25 -69 58 -105 28
-29 29 -34 21 -76 -6 -24 -8 -58 -6 -74 5 -28 2 -32 -33 -43 -37 -12 -158 -9
-229 7 -27 6 -25 2 28 -48 63 -58 79 -97 66 -157 -23 -112 -200 -165 -327 -99
-46 24 -53 26 -48 10 25 -86 12 -159 -38 -209 -63 -63 -161 -51 -196 23 -8 18
-17 33 -20 33 -3 0 -11 -13 -17 -30 -7 -17 -23 -34 -40 -41 -16 -7 -23 -13
-15 -16 7 -3 24 3 39 12 32 21 39 12 50 -65 18 -129 2 -214 -53 -279 -34 -40
-58 -53 -114 -62 l-45 -6 42 -2 c36 -1 44 -5 49 -25 7 -31 -20 -84 -52 -98
-24 -11 -24 -12 28 -42 128 -73 213 -201 177 -265 -21 -37 -56 -52 -114 -47
-42 4 -47 2 -32 -9 23 -17 23 -90 -2 -135 -23 -44 -72 -74 -106 -66 -35 9 -58
58 -50 106 l6 38 -41 7 c-59 10 -80 34 -80 94 0 80 15 108 60 115 57 9 56 21
-2 21 -42 0 -54 5 -74 28 -32 38 -30 69 10 152 18 39 31 71 27 72 -3 1 -18 4
-33 7 -26 6 -28 10 -28 52 l0 46 -35 -30 c-40 -35 -86 -47 -155 -39 l-47 6 4
-43 c4 -35 1 -48 -16 -65 -49 -49 -108 -32 -145 43 -16 33 -17 45 -8 87 6 26
24 75 40 109 l29 60 -54 0 c-139 0 -218 113 -164 235 11 26 21 49 21 51 0 2
-14 -2 -31 -8 -60 -21 -112 34 -66 70 12 9 39 34 60 55 l38 39 19 -25 c24 -30
70 -50 102 -44 18 3 16 5 -9 6 -40 1 -90 43 -101 84 l-9 32 -15 -30 c-35 -66
-107 -111 -159 -100 -34 8 -73 52 -89 101 -25 74 4 207 65 304 14 22 25 42 25
45 0 3 -22 5 -50 5 -41 0 -55 5 -83 30 -39 34 -49 67 -34 116 22 73 113 144
183 144 l30 0 0 98 c0 209 89 359 252 423 44 17 79 23 148 23 l91 1 29 55 c39
74 128 159 205 197 62 31 183 62 194 51 3 -3 -8 -31 -25 -63 -24 -46 -30 -69
-30 -121 0 -79 16 -120 63 -161 35 -31 105 -53 167 -53 23 0 27 -3 23 -20 -9
-35 7 -106 33 -147 34 -52 82 -83 140 -91 47 -7 49 -8 55 -46 11 -67 70 -93
140 -62 13 5 18 0 24 -21 11 -44 43 -90 79 -112 18 -12 37 -21 42 -21 5 0 -5
10 -23 21 -46 29 -77 98 -70 157 2 26 8 56 13 67 6 14 -4 10 -37 -17 -86 -71
-127 -58 -115 36 l6 54 -53 -1 c-90 -2 -155 51 -164 135 -4 36 1 56 25 105
l31 60 -67 -14 c-171 -37 -271 22 -258 153 6 65 24 101 97 191 l58 72 -45 21
c-64 31 -79 66 -64 144 6 34 27 89 46 124 l34 62 -41 0 c-29 0 -47 7 -64 25
-32 31 -32 66 0 103 l25 30 -35 35 c-39 39 -45 78 -20 126 19 38 39 44 62 19
47 -53 147 -72 223 -42 l40 16 39 -34 c46 -43 98 -55 140 -33 16 8 33 20 37
27 4 6 -3 4 -17 -5 -54 -38 -138 -2 -169 73 l-12 30 -32 -19 c-96 -59 -236
-11 -236 81 0 84 110 168 221 168 37 0 38 0 32 33 -7 44 22 153 52 199 l25 38
-25 -12 c-13 -6 -22 -14 -20 -19 3 -4 -5 -24 -17 -45 -12 -20 -29 -64 -37 -98
l-16 -61 -50 -6 c-58 -7 -76 -13 -128 -48 -51 -33 -87 -96 -87 -150 0 -34 -5
-47 -25 -63 -55 -43 -70 -114 -37 -178 15 -32 16 -39 3 -76 -20 -56 -1 -109
51 -143 l37 -24 -30 -58 c-16 -33 -32 -59 -35 -59 -4 0 -22 14 -41 30 -25 23
-43 30 -74 30 -23 0 -70 -13 -109 -30 -77 -34 -108 -37 -150 -15 -46 24 -60
61 -57 156 1 67 -3 92 -18 124 -12 24 -19 54 -17 76 3 35 6 38 49 48 42 11
103 57 103 79 0 5 -18 -8 -40 -30 -38 -39 -43 -40 -90 -36 l-50 5 0 -44 c0
-62 -23 -103 -58 -103 -15 0 -37 7 -49 15 -20 14 -21 13 -28 -13 -9 -39 -54
-82 -85 -82 -34 0 -56 25 -65 72 l-7 38 -30 -41 c-35 -48 -87 -73 -135 -64
-41 7 -99 56 -107 90 -6 22 -9 23 -34 14 -31 -12 -86 -4 -122 17 l-25 15 23
-20 c23 -20 81 -41 114 -41 10 0 24 -13 33 -29 19 -38 58 -68 107 -83 70 -21
89 -82 42 -137 -24 -29 -25 -31 -6 -31 48 0 67 -61 36 -110 l-16 -25 21 24
c30 33 31 83 4 113 -13 15 -14 20 -2 34 7 9 18 25 24 36 9 19 19 20 145 19 74
-1 138 -5 143 -10 4 -4 -2 -34 -13 -66 -47 -135 -35 -201 41 -244 35 -20 44
-21 121 -11 122 15 270 13 294 -4 18 -13 14 -17 -56 -49 -96 -44 -168 -101
-222 -177 l-42 -60 -65 0 c-258 -1 -451 -205 -451 -476 l0 -69 -46 -19 c-62
-25 -100 -59 -134 -120 -34 -58 -40 -128 -15 -175 18 -35 69 -79 101 -87 28
-7 29 -10 9 -57 -27 -65 -38 -167 -26 -229 15 -71 69 -136 121 -147 28 -5 36
-12 40 -34 6 -32 34 -67 54 -67 11 0 13 -13 9 -63 -4 -50 -1 -73 15 -110 23
-52 85 -103 138 -113 39 -7 39 -9 19 -57 -22 -54 -19 -141 6 -187 55 -97 185
-94 220 5 12 33 15 35 60 35 25 0 59 2 75 5 18 3 37 -1 48 -10 18 -13 19 -19
8 -49 -27 -75 -20 -152 17 -189 18 -18 18 -20 0 -68 -35 -92 -16 -169 51 -204
16 -8 30 -23 30 -33 0 -9 9 -36 19 -59 24 -53 68 -77 127 -70 88 10 138 77
136 185 0 59 0 62 24 62 108 0 153 104 95 219 -21 41 -97 115 -137 133 -20 9
-24 16 -18 32 4 12 8 40 8 64 1 38 7 49 57 100 66 69 89 126 89 224 l0 68 53
0 c102 1 157 44 193 153 8 26 16 47 17 47 1 0 29 -14 61 -30 53 -27 68 -30
155 -30 136 0 164 -10 191 -66 33 -68 109 -114 189 -114 38 0 85 -47 88 -88 5
-78 99 -124 178 -86 68 32 95 116 60 184 -11 21 -12 36 -5 54 8 22 16 26 52
26 24 0 70 -7 103 -15 82 -20 132 -18 184 5 24 11 44 20 46 20 1 0 21 -24 43
-53 22 -30 71 -75 110 -101 l69 -48 -46 -77 c-26 -43 -58 -103 -72 -133 l-24
-56 -85 -21 c-116 -28 -203 -74 -270 -142 l-55 -56 -150 -6 c-231 -9 -525 -51
-778 -109 -104 -24 -94 -8 -137 -216 -125 -600 -177 -1162 -168 -1819 l5 -353
-32 0 c-18 0 -38 -7 -45 -15 -10 -13 -8 -19 16 -38 76 -60 74 -54 85 -177 l11
-115 88 -170 c48 -93 94 -190 101 -215 7 -25 21 -51 31 -58 10 -7 30 -36 44
-63 18 -37 29 -49 42 -45 9 3 80 19 157 36 l140 31 163 -17 c176 -19 167 -14
163 -84 -2 -33 10 -47 181 -222 172 -176 188 -189 268 -227 46 -23 89 -46 94
-51 6 -6 15 -10 21 -10 5 0 4 4 -4 9 -21 13 65 25 131 17 29 -3 211 -8 403
-12 324 -7 352 -6 368 10 9 10 17 28 17 42 0 23 -2 24 -80 24 -99 0 -254 16
-339 36 -65 15 -132 56 -331 202 l-75 56 35 14 c55 23 260 43 425 41 l150 -2
57 -38 c31 -22 59 -39 63 -39 3 0 18 14 33 30 l27 31 37 -21 c21 -11 44 -20
52 -20 10 0 15 -29 20 -123 8 -130 4 -157 -23 -157 -40 -1 -41 -13 -10 -120
17 -58 36 -110 42 -117 12 -12 241 -73 275 -73 11 0 55 25 98 56 l79 57 -54
-57 c-34 -37 -50 -61 -44 -67 11 -11 184 -28 288 -29 l71 0 49 -50 c27 -27 50
-48 52 -46 2 2 -10 35 -27 74 -16 39 -30 77 -30 84 0 7 -26 39 -57 72 -44 44
-49 52 -22 32 l37 -27 38 22 c22 12 52 34 68 48 27 25 28 25 22 4 -7 -23 35
-163 74 -246 20 -43 27 -48 118 -88 108 -47 217 -65 334 -53 104 9 102 6 109
196 3 90 6 155 7 146 3 -28 73 -252 81 -261 4 -4 97 -28 207 -53 135 -30 205
-51 218 -64 14 -14 26 -59 46 -177 l26 -158 45 140 44 140 35 3 c19 1 63 9 98
18 63 16 102 48 102 82 0 70 278 246 522 331 165 57 505 111 628 99 35 -3 35
-3 -42 -45 -185 -102 -371 -243 -453 -343 -50 -60 -125 -200 -125 -232 0 -24
102 -149 189 -231 70 -67 130 -97 215 -107 l61 -7 229 114 230 115 17 -24 c51
-69 48 -79 46 132 -2 181 0 200 22 263 24 70 112 249 159 324 33 53 67 60 60
12 -4 -24 0 -33 16 -39 33 -14 212 -41 308 -47 80 -5 91 -4 145 22 223 105
244 112 294 91 19 -8 32 24 18 45 -18 28 -8 48 37 74 58 34 140 54 221 55 68
0 228 -23 313 -45 30 -8 116 -28 190 -44 129 -29 264 -71 282 -89 10 -10 13
-52 10 -154 -2 -90 10 -83 -169 -94 -107 -6 -113 -7 -113 -28 0 -17 6 -22 33
-24 17 -1 99 -19 182 -39 122 -29 146 -38 132 -47 -75 -45 -228 -150 -257
-175 -29 -26 -25 -25 23 8 60 41 155 81 240 102 34 8 47 16 47 29 0 10 -14 98
-31 196 -39 223 -43 350 -13 410 l20 41 -120 7 c-203 11 -275 24 -331 58 -69
42 -158 109 -152 115 3 2 48 -12 101 -31 107 -40 143 -43 366 -26 232 18 300
30 326 60 19 21 31 25 59 22 19 -2 35 -7 35 -10 0 -3 -12 -26 -27 -51 l-27
-46 60 53 c78 71 176 128 271 160 71 23 93 26 243 26 124 0 182 -4 234 -17 81
-20 73 -26 138 100 43 82 43 83 88 88 115 16 265 50 375 86 l121 40 141 272
141 272 -19 80 c-10 44 -50 221 -89 392 l-70 313 36 72 c20 39 47 89 60 110
13 21 22 38 19 38 -3 0 -33 -25 -66 -56 -34 -31 -65 -52 -69 -47 -8 7 -120
547 -120 575 0 29 166 -23 272 -86 l56 -34 -19 70 c-37 132 -80 193 -167 234
-65 30 -136 85 -154 117 -6 12 -13 53 -14 91 -2 59 -7 76 -33 113 -25 35 -34
63 -51 170 -11 70 -25 132 -30 137 -5 5 -57 11 -116 15 l-107 6 -18 52 c-48
143 -139 256 -247 309 -42 20 -65 39 -81 66 -39 69 -153 128 -276 143 -54 7
-58 10 -84 52 -14 25 -45 70 -67 101 l-41 55 67 66 c36 36 73 77 81 90 14 22
18 23 49 13 46 -17 75 -15 148 8 114 36 142 24 122 -51 -15 -53 7 -103 53
-125 70 -33 147 9 147 81 0 37 35 75 69 75 57 0 121 53 136 112 8 33 42 46
139 54 70 7 115 22 149 52 20 18 17 21 52 -44 35 -66 72 -87 143 -83 l52 4 0
-31 c0 -71 30 -137 86 -191 31 -29 54 -60 54 -72 0 -11 5 -31 11 -44 10 -22 6
-29 -40 -72 -59 -55 -87 -116 -78 -172 8 -46 36 -71 88 -79 38 -6 39 -8 39
-46 0 -79 54 -138 125 -138 35 0 48 5 68 29 13 16 28 46 31 65 4 21 15 40 27
47 26 14 52 74 44 102 -3 12 -13 39 -22 59 -14 33 -14 38 1 59 21 30 21 89 0
132 -26 54 -11 69 70 71 43 1 66 -2 66 -10 0 -6 11 -23 25 -38 18 -19 34 -26
62 -26 51 0 78 20 98 74 16 41 16 48 0 98 -9 29 -18 58 -21 64 -3 7 15 22 40
34 58 28 87 73 88 139 0 27 -3 55 -7 61 -4 6 5 22 19 35 14 13 26 34 26 47 0
17 10 27 38 39 75 31 96 155 47 274 -18 44 -21 61 -12 64 6 2 29 21 50 41 31
32 37 44 37 79 0 80 -72 169 -150 186 -24 5 -30 13 -35 43 -29 182 -105 294
-234 343 -39 15 -80 22 -137 23 l-80 1 -51 52 c-50 52 -141 105 -200 118 -18
3 -33 11 -33 15 0 21 44 29 179 36 130 6 146 9 171 31 40 34 44 63 17 141 -13
37 -27 74 -31 84 -6 14 2 17 61 23 37 3 90 10 116 15 41 6 50 5 54 -9 3 -9 12
-23 20 -33 10 -11 11 -18 4 -23 -6 -3 -11 -14 -11 -23 0 -13 3 -12 16 6 8 12
21 22 29 22 9 0 6 9 -10 25 -14 13 -25 32 -25 42 0 24 28 63 45 63 19 0 75 49
85 75 5 13 23 26 47 33 21 6 47 19 58 27 18 15 17 15 -12 0 -18 -8 -47 -15
-66 -15 -29 0 -37 -5 -47 -30 -20 -49 -81 -77 -129 -59 -14 6 -38 22 -53 37
-27 25 -28 25 -28 5 0 -32 -10 -52 -31 -64 -25 -13 -71 11 -87 46 -10 21 -15
24 -31 15 -48 -25 -91 10 -91 74 0 23 -3 24 -37 19 -48 -7 -55 -13 -16 -13 27
0 32 -4 37 -35 4 -20 2 -44 -5 -56 -6 -12 -10 -45 -9 -73 5 -114 4 -125 -14
-145 -27 -30 -79 -36 -129 -17 -65 24 -123 21 -153 -9 -14 -14 -28 -25 -32
-25 -4 0 -19 19 -34 42 l-27 43 29 26 c39 36 47 72 26 117 -12 24 -14 38 -7
45 6 6 11 32 11 58 0 35 -6 52 -25 73 -13 14 -29 26 -35 26 -5 0 -10 14 -10
31 0 75 -74 138 -172 148 l-59 6 -18 53 c-10 28 -25 60 -34 70 -10 10 -17 23
-17 29 0 6 -6 13 -14 16 -8 3 -1 -15 17 -44 21 -34 32 -66 35 -104 4 -53 5
-54 31 -49 70 14 191 -59 191 -115 0 -76 -103 -126 -179 -86 -28 14 -29 14
-41 -16 -14 -34 -64 -79 -87 -79 -9 0 -14 -3 -10 -6 12 -12 78 19 100 48 21
26 27 29 45 19 49 -26 135 -8 176 38 24 27 41 27 60 -1 24 -34 20 -85 -8 -111
l-24 -23 24 -21 c13 -12 24 -32 24 -46 0 -26 -28 -57 -51 -57 -37 -1 -42 -17
-16 -52 31 -40 57 -108 57 -148 0 -30 -48 -80 -77 -80 -8 0 10 -25 42 -57 69
-71 95 -119 95 -176 0 -85 -60 -123 -180 -115 l-67 5 30 -48 c24 -40 29 -56
24 -90 -3 -22 -14 -50 -24 -61 -22 -25 -73 -48 -107 -48 -22 0 -24 -3 -22 -52
1 -46 -2 -53 -19 -56 -12 -2 -38 8 -58 22 -39 27 -43 24 -26 -21 15 -40 3 -88
-34 -131 -18 -20 -23 -30 -12 -22 34 24 54 53 65 91 10 36 11 36 54 32 37 -5
46 -2 60 18 9 13 16 35 16 50 0 23 5 28 35 33 40 8 90 46 110 87 8 15 15 52
15 82 l0 54 46 6 c87 9 139 68 139 156 0 48 -6 67 -33 111 -18 29 -30 55 -27
58 10 11 140 -20 193 -46 48 -23 162 -130 162 -151 0 -4 42 -7 93 -7 75 0 101
-4 142 -22 112 -51 185 -165 193 -303 l4 -77 50 -4 c72 -7 131 -58 144 -124 8
-43 -34 -92 -87 -100 -38 -6 -39 -7 -24 -28 32 -44 74 -139 80 -185 7 -54 -16
-125 -46 -141 -46 -25 -107 -3 -146 53 -22 30 -23 30 -23 9 0 -13 -13 -37 -29
-53 -16 -16 -26 -29 -22 -29 10 0 48 36 54 52 3 9 13 5 33 -13 16 -15 39 -32
52 -38 45 -24 17 -77 -37 -69 l-29 4 19 -35 c10 -20 19 -55 19 -80 0 -37 -6
-49 -39 -82 -34 -34 -45 -39 -85 -39 -25 0 -46 -2 -46 -5 0 -2 16 -33 35 -68
45 -82 47 -127 6 -168 -35 -35 -49 -36 -86 -8 -22 18 -26 28 -23 56 3 28 1 32
-11 27 -40 -18 -101 -16 -137 5 -19 12 -36 21 -38 21 -1 0 -1 -13 2 -29 3 -23
-1 -32 -19 -41 -13 -7 -25 -14 -27 -15 -2 -2 11 -25 27 -53 48 -76 38 -124
-30 -148 -34 -12 -34 -12 -6 -13 22 -1 31 -8 43 -36 29 -71 12 -120 -47 -132
-27 -5 -28 -8 -23 -43 9 -52 -9 -80 -49 -80 -41 1 -63 18 -82 63 -18 44 -19
84 -2 90 6 3 -11 3 -39 0 -47 -5 -52 -3 -73 23 -18 22 -21 36 -16 64 10 57 62
123 134 170 l24 16 -32 31 c-33 33 -39 61 -19 81 9 9 7 12 -10 12 -31 0 -95
68 -110 116 -13 45 -16 172 -4 191 5 8 13 9 22 3 8 -6 24 -10 35 -9 15 0 11 3
-12 14 -17 7 -34 23 -38 36 -7 22 -8 21 -20 -8 -28 -67 -110 -85 -163 -35 -34
32 -54 90 -45 133 3 16 3 29 0 29 -3 0 -28 -12 -54 -26 -40 -22 -57 -25 -105
-21 -94 8 -148 56 -148 131 0 29 9 46 43 83 38 42 39 46 17 40 -77 -21 -156
-29 -184 -18 -19 8 -26 16 -22 27 3 8 -1 34 -9 57 -13 38 -13 43 4 62 42 46
39 62 -4 20 -39 -38 -45 -47 -36 -64 26 -48 4 -125 -42 -150 l-25 -13 19 -32
c27 -45 24 -74 -13 -110 l-33 -31 23 -22 c25 -25 29 -68 8 -95 -7 -10 -28 -24
-47 -32 -26 -12 -29 -15 -13 -16 34 0 67 -32 67 -65 0 -34 -25 -55 -65 -55
-32 0 -34 -6 -13 -34 21 -28 19 -53 -5 -66 -27 -14 -57 -4 -76 25 -14 21 -14
28 -1 53 12 25 12 33 1 53 -15 28 -18 78 -5 99 7 10 0 25 -26 53 -33 37 -35
43 -31 93 4 48 3 52 -13 43 -49 -26 -75 -3 -85 74 l-6 44 -38 -21 c-32 -17
-42 -18 -63 -9 -38 18 -52 77 -52 224 0 123 -1 127 -30 168 -16 24 -35 45 -42
48 -17 7 -16 19 3 48 l15 23 51 -31 c44 -28 61 -32 127 -34 l76 -2 -60 10
c-78 12 -140 51 -187 119 l-38 53 0 -47 c0 -69 -30 -96 -107 -96 -45 0 -65 5
-94 26 -43 29 -73 70 -64 84 3 6 1 10 -4 10 -38 0 19 -94 82 -137 34 -22 55
-28 107 -30 60 -2 67 -4 92 -35 76 -92 51 -200 -52 -223 l-31 -7 35 -39 c59
-64 66 -143 20 -198 -20 -24 -34 -31 -60 -31 -34 0 -35 -1 -20 -22 33 -47 14
-88 -41 -88 -31 0 -32 -1 -21 -25 16 -35 -9 -59 -58 -59 -50 0 -77 33 -72 89
l3 40 -35 -3 c-26 -3 -40 2 -54 17 -22 24 -15 37 24 44 19 3 17 5 -11 6 -39 1
-71 28 -88 74 -13 33 -5 71 21 110 l19 27 -46 0 c-38 0 -52 5 -76 29 -23 24
-29 38 -29 74 0 51 10 62 63 71 22 4 52 20 70 38 30 28 30 28 3 9 -65 -47
-167 -12 -181 63 -9 47 17 102 60 127 19 12 35 28 35 37 -1 15 -2 15 -11 0 -5
-10 -19 -18 -30 -18 -12 0 -36 -15 -55 -34 -30 -30 -34 -40 -34 -86 0 -57 20
-102 56 -120 21 -12 21 -14 8 -46 -29 -70 -6 -141 54 -170 20 -9 39 -18 41
-20 2 -2 -15 -33 -39 -68 -28 -44 -57 -74 -86 -91 -27 -16 -64 -53 -94 -93
-26 -37 -58 -73 -69 -80 -20 -11 -21 -10 -19 25 0 21 -2 47 -6 59 -4 13 -1 26
8 33 8 7 20 27 26 46 10 31 6 56 -24 126 -5 12 1 20 24 29 46 19 62 49 59 114
-2 45 1 60 18 78 12 13 25 35 28 50 7 28 -9 93 -26 103 -5 4 -5 -5 1 -20 16
-42 12 -71 -16 -104 -59 -71 -164 -36 -206 68 l-13 33 -25 -38 c-38 -58 -101
-63 -159 -12 -21 19 -20 17 4 -10 40 -45 93 -60 135 -38 l33 16 38 -40 c43
-44 70 -54 129 -48 l40 4 0 -39 c0 -21 -4 -46 -10 -56 -11 -22 -79 -51 -116
-51 l-26 0 35 -39 c58 -65 59 -131 1 -162 -24 -12 -24 -13 -5 -33 30 -33 35
-64 16 -93 -15 -22 -22 -25 -57 -20 -22 3 -49 14 -61 24 -19 16 -20 16 -8 1 7
-10 36 -31 65 -47 92 -53 135 -116 112 -162 -15 -31 -64 -37 -95 -12 -12 10
-28 36 -35 58 -12 33 -19 40 -43 42 -16 1 -38 13 -51 29 -20 22 -23 36 -20 77
3 44 0 54 -24 78 -33 33 -35 60 -7 106 l21 34 -37 -18 c-33 -16 -39 -16 -63
-2 -15 8 -32 26 -39 39 -10 20 -13 21 -13 7 0 -23 53 -77 75 -77 13 0 16 -6
11 -24 -3 -14 -2 -36 4 -50 7 -20 6 -26 -4 -26 -41 0 -106 92 -106 151 0 27
-3 31 -21 26 -20 -5 -21 -3 -14 41 4 25 24 134 45 242 l39 195 -30 37 c-37 47
-37 73 0 93 62 31 110 131 96 198 -13 59 -52 114 -98 136 -24 12 -49 21 -56
21 -9 0 -11 7 -7 23 19 64 18 73 -9 105 -33 39 -77 48 -156 32 -58 -13 -61
-12 -87 12 -42 38 -74 55 -136 73 -31 9 -55 22 -54 27 7 19 71 48 105 48 18 0
33 4 33 9 0 5 -11 33 -25 62 -60 131 -34 233 63 248 33 6 37 10 40 38 4 39 43
73 83 73 26 0 28 2 22 30 -10 54 40 88 83 55 28 -21 32 -19 39 24 12 72 75 97
135 52 l30 -22 0 53 c0 63 24 109 72 138 47 29 62 22 69 -30 5 -39 2 -49 -23
-81 -66 -82 -67 -236 -1 -311 9 -10 12 -25 8 -37 -10 -31 13 -98 46 -136 18
-20 51 -42 80 -52 27 -10 49 -21 49 -26 0 -4 -14 -34 -30 -67 -53 -105 -52
-194 1 -255 16 -18 46 -39 64 -45 33 -11 35 -14 35 -55 0 -55 14 -92 48 -129
106 -113 299 -46 348 120 l16 56 26 -25 c59 -54 122 -63 169 -23 26 22 31 23
53 10 38 -20 103 -17 133 6 51 41 66 116 41 216 -5 18 4 26 60 54 60 29 70 31
111 22 94 -20 172 29 196 123 6 25 13 45 16 45 3 0 23 -16 46 -35 70 -60 122
-80 209 -80 71 0 79 2 107 29 17 17 31 35 31 42 0 6 15 15 34 18 64 12 105 78
87 142 l-8 29 -7 -39 c-4 -22 -20 -51 -36 -68 -23 -23 -37 -28 -75 -28 -25 0
-62 7 -83 15 l-37 15 30 -25 c17 -14 40 -28 53 -31 30 -8 28 -28 -5 -54 -24
-19 -37 -21 -81 -17 -29 3 -73 15 -98 27 -46 23 -136 105 -192 175 l-32 40 0
-79 c0 -97 -14 -147 -51 -182 -26 -24 -36 -27 -90 -26 -64 2 -100 -10 -158
-53 -40 -29 -93 -33 -149 -10 l-37 15 25 -20 c14 -11 42 -25 63 -30 l37 -11 0
-55 c0 -69 -23 -122 -57 -130 -25 -7 -64 9 -110 42 -25 18 -25 17 -37 -38 -12
-56 -89 -67 -138 -21 -17 15 -41 51 -53 78 l-23 50 -1 -54 c-1 -74 -18 -124
-59 -171 -43 -51 -80 -70 -134 -70 -54 0 -100 27 -121 73 -22 45 -21 62 3 116
11 24 20 44 20 46 0 1 -22 0 -48 -3 -60 -5 -105 16 -128 60 -37 71 7 239 79
301 21 18 24 25 10 18 -42 -21 -90 -13 -128 20 -45 40 -65 78 -65 124 0 27 4
35 17 35 12 0 8 7 -14 23 -18 12 -39 39 -48 60 -17 43 -20 123 -4 164 16 43
70 94 91 87 15 -4 14 0 -6 19 -26 26 -46 83 -46 131 0 77 91 181 234 271 65
40 74 49 66 65 -6 10 -10 39 -10 64 0 107 109 144 195 65 19 -17 24 -17 75 -4
84 22 215 29 311 16 69 -9 307 -64 414 -96 18 -5 24 2 44 49 44 107 135 149
183 85 24 -31 35 -129 20 -180 l-9 -35 67 -32 c37 -17 83 -44 101 -59 l34 -27
-25 28 c-14 15 -50 44 -82 63 l-56 35 5 92 c7 108 -9 156 -60 183 -41 21 -108
12 -150 -20 -26 -19 -62 -75 -83 -125 -1 -1 -35 6 -75 17 -210 57 -441 65
-614 22 -77 -19 -81 -19 -100 -2 -11 10 -30 24 -42 30 -31 16 -105 14 -129 -4
-31 -21 -54 -76 -54 -128 0 -43 -1 -45 -62 -83 -112 -69 -189 -155 -217 -245
-10 -32 -17 -37 -51 -43 -49 -8 -114 -63 -130 -110 -10 -32 -14 -34 -67 -38
-50 -4 -61 -9 -89 -41 -19 -24 -40 -37 -55 -37 -38 0 -89 -36 -95 -69 -4 -20
-16 -33 -41 -45 -23 -11 -40 -29 -51 -54 -11 -26 -28 -43 -56 -57 -85 -42
-108 -132 -65 -256 22 -63 18 -78 -18 -79 -7 0 -30 -17 -52 -39 -24 -24 -52
-41 -75 -45 l-36 -7 -32 66 c-18 36 -36 65 -40 65 -4 0 -30 -33 -59 -74 l-51
-74 -57 5 c-73 7 -121 -16 -187 -91 l-49 -54 -50 15 c-47 15 -53 20 -99 97
-152 253 -318 534 -461 784 l-163 282 -130 -252 c-72 -139 -221 -435 -332
-658 -110 -223 -204 -406 -208 -407 -4 -2 -31 45 -61 102 -60 117 -147 255
-224 357 l-50 67 -74 -107 c-40 -59 -78 -108 -83 -110 -6 -2 -7 9 -2 30 30
137 -30 265 -123 260 -35 -2 -42 -2 -125 -1 -39 0 -49 6 -90 47 -25 26 -70 60
-100 77 -48 26 -65 30 -135 30 -74 0 -107 -8 -145 -36 -12 -8 -28 2 -78 51
-126 123 -254 143 -345 55 l-33 -32 -37 18 c-49 25 -142 49 -192 49 -35 0 -49
7 -82 38 -24 23 -59 44 -87 52 -37 10 -46 16 -41 29 39 100 43 226 10 295 -20
42 -94 96 -131 96 -15 0 -26 10 -34 30 -16 37 -74 90 -100 90 -13 0 -26 13
-37 37 -25 53 -77 85 -130 81 -36 -3 -44 1 -54 20 -27 50 -108 77 -179 60 -22
-6 -28 -1 -49 44 -30 63 -85 104 -163 120 l-59 12 -36 69 c-51 97 -144 180
-272 243 l-100 49 -1 48 c-1 97 -56 167 -137 174 -30 2 -61 -3 -83 -12z m4399
-1368 c100 -170 263 -430 418 -665 111 -170 149 -234 138 -237 -8 -3 -22 -7
-31 -10 -8 -3 -90 46 -193 115 -98 66 -181 120 -184 120 -3 0 6 -26 19 -57 27
-67 32 -143 9 -143 -22 0 -78 54 -121 116 l-39 57 -7 -159 c-8 -181 -25 -279
-48 -279 -22 0 -105 116 -130 182 -12 32 -32 132 -45 222 -13 90 -25 165 -27
167 -2 2 -12 -63 -22 -144 -23 -195 -85 -472 -105 -472 -3 0 -22 23 -41 51
-18 28 -37 52 -40 54 -4 2 -33 -27 -65 -65 -32 -39 -62 -70 -68 -70 -6 0 -8
54 -5 158 l6 157 182 350 c100 193 215 416 256 498 41 81 77 147 82 147 4 0
31 -42 61 -93z m-6973 -123 c11 -26 13 -52 8 -90 -12 -100 29 -166 121 -194
36 -10 48 -9 114 14 93 33 121 33 151 1 16 -17 34 -25 55 -25 28 0 33 -4 39
-32 9 -44 32 -77 63 -89 l26 -10 -23 -24 c-20 -21 -33 -25 -83 -25 -51 0 -62
3 -79 25 -36 46 -68 55 -190 55 -62 0 -142 -7 -178 -14 -54 -12 -70 -12 -97
-1 -69 29 -78 91 -27 204 13 29 24 60 24 67 0 20 -48 41 -113 49 l-57 7 39 20
c22 11 47 30 56 44 12 18 25 24 53 24 20 0 46 7 56 15 26 20 25 20 42 -21z
m-340 -45 c3 -6 20 -17 38 -25 30 -13 28 -13 -41 -14 -77 0 -91 10 -45 34 33
18 39 19 48 5z m5152 -108 c53 -27 135 -103 168 -156 l28 -44 21 41 c27 54 73
78 148 78 155 0 248 -113 271 -330 2 -19 2 7 1 57 -3 86 -2 94 18 108 31 22
54 19 84 -11 20 -20 28 -23 34 -12 5 7 9 16 9 20 0 4 9 10 20 13 30 10 64 -17
90 -70 18 -38 22 -57 17 -102 -3 -30 -14 -67 -23 -81 -14 -22 -14 -24 -2 -14
13 11 20 7 46 -25 38 -49 69 -111 81 -162 10 -47 4 -56 -51 -66 -33 -6 -38 -5
-39 11 0 16 -2 16 -9 -3 -9 -22 -46 -37 -121 -49 -30 -5 -42 -1 -70 23 -68 57
-64 57 -61 -3 4 -53 3 -54 -27 -60 -25 -5 -32 -13 -37 -40 -6 -32 -9 -34 -44
-34 -30 0 -44 6 -64 31 -14 17 -27 43 -27 57 -1 22 -2 23 -6 6 -8 -40 23 -93
63 -110 20 -8 42 -13 50 -10 7 3 15 2 18 -2 6 -10 -30 -437 -38 -450 -11 -18
-72 -25 -109 -13 -40 13 -87 61 -115 115 l-19 40 -17 -52 c-25 -74 -36 -73
-36 0 0 126 -45 584 -59 607 -5 7 -62 -4 -182 -35 -361 -95 -628 -175 -795
-240 -78 -30 -144 -54 -148 -54 -11 0 -6 46 9 90 8 23 15 44 15 45 0 1 -22 0
-48 -3 -44 -4 -51 -2 -70 23 -28 36 -28 67 2 102 l24 29 -64 -4 -64 -4 -44 43
c-78 78 -84 189 -15 272 41 50 81 69 157 76 l63 6 -49 38 c-27 20 -57 52 -65
69 -14 28 -14 35 -1 60 30 58 106 72 203 39 l53 -19 34 38 c25 28 62 49 149
85 109 45 119 47 176 41 77 -9 149 -37 211 -83 43 -31 49 -33 54 -16 19 59 31
77 58 94 40 24 97 24 144 0z m6893 -81 c22 0 42 -7 50 -17 8 -9 27 -22 44 -29
l30 -12 -30 -7 c-50 -10 -95 -34 -95 -49 0 -7 11 -33 24 -57 14 -24 28 -61 31
-81 6 -32 3 -41 -20 -64 -25 -25 -31 -26 -89 -22 -34 3 -104 2 -156 -3 -92 -7
-96 -8 -127 -43 -29 -32 -39 -36 -82 -36 -60 0 -80 18 -51 45 11 10 25 35 30
57 8 27 16 38 30 38 10 0 32 12 49 26 25 21 38 25 64 20 87 -17 134 -18 165
-2 49 26 66 67 58 147 -8 73 6 121 27 100 6 -6 28 -11 48 -11z m234 -22 c33
-15 32 -28 -2 -28 -16 0 -39 -3 -53 -7 l-25 -6 25 25 c14 14 26 26 27 27 1 1
14 -4 28 -11z m-5980 -315 c60 -77 183 -262 227 -343 l36 -65 -59 -119 c-66
-135 -66 -135 -71 31 l-4 102 23 -21 c32 -30 29 -18 -7 27 -23 29 -30 48 -30
81 0 24 -1 44 -2 44 -2 0 -45 -11 -97 -25 -52 -13 -98 -22 -103 -19 -4 3 -8
16 -8 29 0 12 -16 55 -36 93 l-36 71 53 85 c30 47 57 86 61 86 4 0 28 -26 53
-57z m1361 -143 c65 -39 122 -74 126 -78 4 -4 -22 -33 -58 -64 -62 -56 -125
-85 -168 -79 -37 5 -67 -10 -90 -47 -14 -22 -44 -49 -74 -65 l-51 -28 9 32
c13 44 32 185 32 237 0 23 1 42 3 42 2 0 21 -11 41 -25 75 -51 133 -18 121 68
-3 24 -9 51 -13 60 -3 9 -4 17 -1 17 3 0 58 -32 123 -70z m755 37 c-13 -13
-26 -3 -16 12 3 6 11 8 17 5 6 -4 6 -10 -1 -17z m272 -31 c42 -13 93 -36 112
-50 l34 -26 62 20 c51 17 67 19 95 10 70 -24 75 -72 11 -137 l-31 -33 43 0
c98 0 173 -72 174 -170 1 -83 -53 -140 -133 -140 -48 0 -66 11 -250 159 -121
97 -257 191 -277 191 -13 0 -112 -160 -191 -310 -58 -108 -114 -234 -147 -330
-12 -36 -26 -65 -31 -65 -24 1 -144 288 -232 559 l-55 168 -54 -5 c-61 -6 -61
3 -1 34 32 16 54 20 97 17 48 -4 58 -9 86 -42 l31 -37 16 33 c39 82 129 158
187 158 45 0 74 -19 91 -60 7 -16 15 -30 17 -30 3 0 23 16 46 35 48 42 127 74
182 74 22 1 75 -10 118 -23z m-1991 -283 c-2 -82 -8 -154 -11 -161 -13 -23
-225 -262 -233 -262 -4 0 -8 19 -8 42 0 34 23 86 128 285 70 133 127 243 128
243 1 0 -1 -66 -4 -147z m-1351 -6 c19 -144 42 -427 36 -434 -3 -2 -65 -20
-138 -39 -132 -34 -443 -134 -437 -139 2 -2 71 -17 153 -34 290 -60 609 -156
701 -211 20 -11 38 -20 39 -18 4 4 51 586 61 741 6 97 9 110 28 118 29 12 598
150 602 146 4 -4 34 -509 34 -577 l1 -35 57 61 c32 33 129 142 216 242 86 100
160 182 164 182 4 -1 45 -58 92 -127 47 -70 129 -188 183 -264 53 -75 97 -143
97 -151 0 -7 -48 -58 -106 -113 l-106 -100 212 3 c162 2 215 0 227 -10 9 -7
-12 39 -46 102 -98 182 -221 429 -221 442 0 17 198 134 386 229 144 73 239
107 268 96 7 -3 21 -34 30 -69 51 -181 193 -538 263 -657 l26 -44 37 104 c53
147 120 296 192 424 82 147 126 215 139 215 14 0 150 -94 244 -169 129 -102
345 -291 345 -302 0 -5 -51 -76 -113 -157 -133 -172 -176 -232 -157 -214 17
15 190 17 190 2 0 -5 -5 -41 -12 -80 -12 -70 -12 -71 -201 -318 -105 -136
-209 -272 -234 -303 l-43 -56 10 -179 c9 -157 8 -186 -6 -234 l-16 -55 -202 6
c-197 5 -204 5 -376 -28 -96 -18 -178 -33 -182 -33 -5 0 -8 14 -8 31 0 26 -3
31 -20 26 -19 -5 -20 0 -20 77 0 79 -2 85 -33 127 -19 24 -66 91 -105 148
l-72 104 0 -140 c0 -77 -3 -180 -6 -229 l-7 -89 -195 3 -195 3 -28 -27 -28
-27 -38 29 -38 29 -259 -5 -259 -5 -41 47 c-23 27 -44 48 -48 48 -4 0 -8 -19
-10 -42 l-3 -43 -365 -3 c-306 -2 -367 0 -375 12 -9 12 -14 12 -33 -2 -20 -15
-62 -17 -453 -12 l-430 5 -132 -56 c-175 -75 -436 -164 -446 -153 -4 5 -23 57
-41 117 -19 59 -36 103 -39 98 -3 -5 -36 -11 -72 -13 l-66 -3 -7 95 c-3 52 -6
158 -6 235 l0 140 -40 23 c-49 28 -85 74 -99 129 -17 63 -12 642 6 712 54 210
266 382 635 515 199 72 874 267 908 263 11 -2 19 -32 31 -130z m1765 56 c36
-62 112 -143 148 -158 l29 -12 -60 -41 -60 -41 -13 -75 c-10 -59 -16 -74 -25
-66 -7 6 -41 53 -75 105 l-62 94 30 78 c17 43 35 97 41 121 7 23 13 42 15 42
2 0 17 -21 32 -47z m-1246 -23 c0 -5 -4 -10 -10 -10 -5 0 -10 5 -10 10 0 6 5
10 10 10 6 0 10 -4 10 -10z m-286 -657 c25 -9 54 -12 79 -7 l40 6 -8 -103 c-4
-57 -8 -105 -10 -107 -1 -2 -27 8 -56 21 -30 13 -91 36 -137 51 -73 25 -81 29
-69 45 75 102 93 121 107 115 8 -4 33 -13 54 -21z m5453 -130 c53 -7 57 -29
13 -70 -16 -15 -44 -57 -63 -93 -31 -61 -36 -65 -70 -68 -51 -4 -59 19 -21 59
24 25 29 39 29 82 1 60 28 112 54 102 8 -3 34 -9 58 -12z m-9221 -24 c27 -26
31 -37 27 -64 -8 -48 14 -101 55 -134 32 -28 35 -32 24 -56 -8 -18 -19 -25
-40 -25 -41 0 -67 23 -112 100 -24 40 -53 77 -73 89 -27 17 -57 56 -57 76 0 2
24 9 53 15 28 6 59 15 67 20 21 13 20 14 56 -21z m653 -107 c-35 -81 -101
-135 -206 -167 -21 -6 -23 -3 -23 28 0 32 3 35 34 41 41 8 64 32 80 86 11 39
16 43 47 45 19 1 44 7 54 13 32 17 35 4 14 -46z m8016 18 c29 0 34 -4 40 -29
8 -37 32 -58 70 -63 25 -2 31 -8 33 -32 4 -28 3 -28 -34 -21 -81 15 -149 69
-169 134 -6 20 -4 23 10 18 9 -4 32 -7 50 -7z m-7143 -51 c26 -28 45 -55 42
-61 -3 -5 9 -24 28 -42 44 -43 134 -217 153 -297 44 -188 -12 -401 -140 -532
-37 -38 -56 -66 -61 -92 -8 -42 -44 -89 -85 -110 l-28 -15 -6 48 c-17 133 -72
249 -187 389 -32 40 -60 76 -61 80 -1 4 -36 37 -77 74 -105 92 -140 134 -189
221 -39 71 -85 187 -78 195 2 1 20 -21 40 -49 20 -29 57 -73 83 -98 l47 -45
-40 60 c-42 62 -95 163 -107 203 -10 32 10 28 26 -5 7 -16 30 -39 51 -52 20
-13 37 -32 37 -42 0 -31 47 -76 94 -89 42 -11 49 -10 93 11 54 27 97 88 88
126 -4 18 1 25 29 37 36 15 66 50 66 78 0 10 5 18 11 18 6 0 25 6 42 14 38 17
59 24 71 25 6 1 32 -22 58 -50z m275 39 c4 -7 8 -35 8 -63 0 -27 4 -60 8 -72
5 -13 4 -23 -1 -23 -13 0 -92 70 -92 82 0 13 53 88 62 88 4 0 10 -6 15 -12z
m7556 -118 l39 -17 -59 -5 c-62 -5 -112 -24 -123 -48 -4 -8 -15 -32 -24 -53
-12 -27 -27 -42 -53 -54 -27 -11 -38 -12 -41 -4 -2 7 -15 25 -28 41 -24 28
-24 29 -7 64 15 29 24 36 48 36 43 0 68 21 105 87 l32 57 36 -44 c20 -23 53
-51 75 -60z m-9436 -34 c39 -56 86 -86 133 -86 28 0 41 -8 67 -39 l32 -38 -24
-23 c-13 -12 -27 -36 -31 -52 -6 -28 -9 -30 -39 -25 -51 8 -82 34 -109 92 -33
68 -61 80 -183 79 l-92 -1 49 24 c55 27 107 81 123 126 12 35 10 36 74 -57z
m8106 68 c28 -9 49 -23 52 -35 4 -11 22 -27 40 -36 23 -11 35 -25 39 -45 3
-17 20 -43 37 -59 58 -54 154 -32 184 43 8 21 21 41 29 44 8 3 22 21 31 41 9
19 19 33 21 31 8 -9 -28 -115 -58 -168 -26 -47 -28 -52 -9 -35 13 11 39 45 58
77 20 32 37 58 38 58 2 0 -4 -26 -12 -57 -28 -108 -80 -200 -159 -283 -41 -42
-74 -80 -74 -83 0 -4 -24 -44 -54 -89 -61 -93 -91 -173 -102 -265 -5 -46 -11
-63 -21 -63 -25 0 -83 66 -83 93 0 16 -7 28 -19 32 -32 10 -111 102 -141 166
-40 86 -56 183 -43 267 12 80 67 217 100 250 13 13 23 30 23 38 0 25 51 93 71
94 3 0 26 -7 52 -16z m-770 -13 c17 -7 40 -39 76 -110 l51 -100 -57 6 c-77 8
-104 23 -148 83 l-37 50 32 40 c33 42 43 46 83 31z m-6628 -92 c-20 -23 -35
-43 -32 -45 9 -9 56 16 71 37 20 29 33 17 18 -16 -12 -25 0 -36 14 -13 9 14
42 -54 43 -88 2 -39 -60 -56 -205 -56 l-128 0 -9 33 c-5 19 -13 39 -18 45 -11
13 26 94 43 94 5 0 43 14 85 30 41 17 87 30 103 30 16 0 32 6 37 13 5 9 8 7
11 -6 2 -10 -12 -35 -33 -58z m8118 48 c94 -25 112 -46 100 -110 l-9 -42 -103
-8 c-147 -12 -176 3 -155 81 5 18 11 21 28 16 20 -6 20 -6 3 13 -24 27 -10 36
21 13 13 -11 32 -20 41 -20 11 1 8 7 -12 21 -15 12 -32 29 -37 40 -9 16 -7 19
17 18 15 -1 63 -10 106 -22z m-6969 -70 c17 -12 17 -16 4 -42 l-15 -28 -10 42
c-12 44 -8 49 21 28z m5658 -40 c3 -27 12 -55 19 -63 13 -16 6 -30 -11 -19
-10 6 -70 118 -70 130 0 4 12 5 27 3 25 -3 29 -8 35 -51z m-5512 -60 c0 -51
-4 -98 -9 -105 -13 -21 -72 -18 -87 3 -22 30 -17 97 9 132 28 39 69 73 79 66
5 -2 8 -46 8 -96z m5243 62 c19 -32 68 -56 127 -63 87 -10 242 -75 266 -111
28 -44 81 -75 125 -75 l39 0 0 -65 c0 -36 -2 -65 -5 -65 -2 0 -40 12 -82 27
-66 22 -96 26 -193 27 -68 1 -140 -5 -177 -13 -44 -11 -71 -12 -90 -5 -34 11
-66 59 -89 127 -9 29 -27 73 -40 99 l-23 47 21 28 c51 67 70 83 90 72 10 -5
24 -19 31 -30z m595 -34 c0 -28 -10 -32 -27 -11 -10 11 -8 17 6 25 10 6 19 11
19 11 1 0 2 -11 2 -25z m-718 -199 c17 -44 39 -89 48 -99 44 -49 117 -59 213
-31 57 17 162 24 175 12 4 -5 0 -16 -8 -25 -21 -25 -119 -163 -115 -163 2 0
39 40 83 90 50 57 86 90 99 90 32 -1 105 -38 127 -65 14 -18 29 -25 52 -25 38
0 52 -13 91 -87 15 -29 48 -73 72 -98 25 -24 49 -61 54 -80 6 -20 23 -50 38
-68 24 -25 38 -32 82 -37 47 -4 56 -9 76 -39 28 -41 30 -105 6 -156 -9 -19
-19 -35 -22 -35 -3 0 -19 32 -35 70 -16 39 -31 72 -35 74 -8 5 -286 -46 -396
-74 -49 -12 -138 -38 -198 -57 -95 -30 -109 -37 -123 -66 -29 -56 -33 -59 -63
-38 -48 33 -339 201 -349 201 -5 0 -30 -18 -56 -41 -51 -45 -53 -44 -31 27 19
64 20 61 -15 79 -30 16 -31 17 -28 83 1 37 -1 141 -5 232 l-8 165 107 139
c123 159 112 158 164 22z m-5111 -37 c6 -16 19 -42 31 -56 l20 -25 -68 -33
c-44 -21 -69 -28 -73 -21 -4 6 -9 45 -11 88 l-5 76 48 0 c44 1 48 -1 58 -29z
m6468 -52 c40 -53 83 -144 83 -177 0 -14 6 -57 14 -97 7 -39 11 -84 8 -100 -3
-17 -34 -56 -83 -103 -67 -66 -81 -85 -110 -157 -18 -46 -36 -78 -40 -72 -3 6
-20 -6 -39 -31 -29 -36 -90 -80 -90 -65 0 4 12 27 27 53 40 67 39 142 -2 203
-40 61 -46 160 -14 257 42 129 169 333 206 332 4 0 22 -20 40 -43z m-7175
-247 c109 -157 161 -301 143 -397 -3 -19 -1 -33 6 -35 6 -2 0 -20 -16 -45
l-27 -41 -63 48 c-83 63 -192 121 -292 156 l-83 29 6 120 c8 156 32 234 107
344 l30 44 62 -64 c34 -35 91 -107 127 -159z m826 178 c9 -9 12 -75 12 -234
l0 -222 45 -126 c32 -90 41 -128 32 -131 -6 -2 -68 -13 -137 -24 -69 -12 -192
-38 -274 -57 l-148 -36 7 -37 c26 -138 26 -141 -6 -141 -47 0 -79 30 -120 113
-23 45 -54 98 -70 118 -41 52 -37 90 14 147 15 16 32 22 61 22 78 0 138 58
151 147 4 30 17 57 39 81 47 52 84 115 110 184 20 53 29 63 92 105 68 46 164
102 175 103 3 0 10 -5 17 -12z m6680 -150 c27 -14 59 -42 77 -67 27 -38 30
-51 30 -114 0 -88 -19 -131 -90 -203 l-50 -52 -85 -5 c-108 -6 -189 -36 -258
-95 l-54 -46 7 40 c18 103 100 223 194 283 58 38 64 54 61 179 -2 48 -2 93 -1
101 2 22 113 8 169 -21z m-7925 -146 c14 -15 16 -31 11 -80 l-7 -62 -46 1
c-25 0 -93 6 -150 12 l-105 12 45 39 c50 43 109 73 172 85 62 13 62 13 80 -7z
m-80 -172 c267 -32 437 -109 597 -272 124 -124 179 -273 159 -430 -27 -217
-162 -413 -384 -557 -61 -39 -262 -147 -305 -164 -12 -4 -10 -10 10 -26 50
-41 113 -84 106 -73 -5 9 75 12 343 12 325 0 350 -1 353 -17 2 -10 7 20 11 67
29 338 35 669 16 900 -6 74 -11 146 -12 159 -2 29 -3 28 200 71 346 72 557 98
878 107 192 5 530 -8 542 -21 7 -7 8 -675 1 -682 -4 -3 -73 1 -155 10 -198 22
-564 37 -690 29 l-103 -6 0 -72 0 -72 265 -6 c146 -3 269 -8 273 -11 4 -2 0
-101 -9 -218 -17 -201 -22 -311 -12 -261 4 19 12 22 68 25 l64 3 11 -41 c9
-31 9 -72 1 -162 -6 -66 -11 -129 -11 -140 0 -16 14 -21 106 -36 58 -10 107
-16 109 -14 1 2 60 122 130 268 161 336 300 641 426 940 55 129 108 253 118
275 18 40 20 41 157 87 262 89 711 218 759 218 8 0 18 -21 25 -52 31 -131 454
-1584 465 -1596 1 -1 10 48 19 111 10 62 21 118 24 124 4 6 21 13 37 15 l30 3
7 121 c13 233 60 511 149 886 l41 167 151 50 c84 27 199 61 257 75 110 27 290
49 302 37 4 -3 -1 -57 -12 -118 -32 -186 -59 -380 -74 -543 -17 -176 -40 -619
-33 -627 3 -2 110 8 239 23 192 23 271 27 453 26 121 0 243 -5 270 -9 l50 -8
6 -55 c3 -30 6 -50 7 -43 1 6 17 13 34 15 l33 3 22 155 c31 217 70 571 88 790
8 102 17 218 21 257 l6 73 92 29 c134 43 313 87 450 110 66 11 121 19 122 18
1 -1 67 -166 147 -367 80 -201 161 -399 180 -440 18 -41 46 -106 62 -143 16
-37 31 -64 35 -60 19 21 147 563 186 785 9 53 20 102 24 108 6 10 481 -1 667
-16 l71 -6 11 -66 c129 -801 177 -1053 327 -1722 110 -488 109 -480 98 -489
-17 -17 -230 -80 -339 -101 -133 -25 -364 -45 -377 -32 -7 7 -105 623 -109
685 0 9 -2 9 -6 0 -3 -10 -45 -13 -159 -13 l-154 0 17 28 c30 48 -2 10 -96
-116 -51 -68 -96 -122 -100 -120 -5 2 -50 53 -101 113 -50 61 -99 117 -108
125 -9 8 -8 5 2 -7 l19 -23 -169 0 -169 0 -50 -291 c-28 -160 -53 -295 -56
-300 -3 -5 -93 12 -210 40 -247 60 -442 100 -527 108 l-63 6 6 31 c4 17 9 38
11 47 3 11 -3 19 -18 23 -48 14 -445 19 -574 7 -317 -30 -671 -120 -946 -242
-106 -47 -138 -56 -138 -41 0 13 -27 221 -35 269 l-6 32 -52 -18 c-69 -24
-327 -130 -560 -230 -104 -45 -197 -81 -207 -81 -10 0 -20 7 -24 15 -3 9 -22
115 -41 238 -20 122 -38 232 -41 245 l-4 22 -264 0 -264 0 -40 -102 c-22 -57
-66 -184 -98 -283 -32 -99 -59 -182 -61 -184 -2 -2 -123 42 -270 99 -148 57
-289 112 -315 121 l-47 18 -19 -57 -19 -57 -74 0 c-41 1 -220 6 -399 12 -336
12 -898 2 -909 -16 -21 -31 -367 -461 -373 -461 -12 0 -170 121 -292 224 -115
96 -345 303 -585 525 -63 59 -111 97 -108 86 15 -50 79 -396 75 -400 -9 -9
-580 -151 -842 -210 -174 -39 -251 -53 -256 -45 -19 31 -49 543 -50 845 0 587
70 1232 191 1757 l20 87 92 21 c178 41 455 83 687 104 69 6 401 -4 493 -14z
m8283 -26 c30 -26 54 -51 54 -57 0 -5 11 -25 25 -43 17 -22 21 -34 12 -37 -14
-5 -200 1 -266 9 l-44 6 39 17 c48 22 100 79 109 120 4 17 9 31 12 31 3 0 29
-21 59 -46z m-407 -211 c-11 -27 -50 -105 -86 -174 l-66 -125 -71 0 -71 1 3
35 c7 68 78 183 151 244 41 35 88 54 153 65 4 0 -2 -20 -13 -46z m-361 -46
c-1 -2 2 -10 9 -18 9 -11 7 -29 -11 -83 l-22 -69 -27 60 c-33 73 -33 86 -4
101 38 18 66 23 55 9z m1260 -317 l0 -35 -8 30 c-4 17 -8 41 -8 55 -1 23 0 23
8 5 5 -11 8 -36 8 -55z m-1068 33 c0 -5 -14 -33 -31 -63 -17 -30 -37 -77 -43
-105 l-12 -50 -28 72 c-30 79 -28 94 20 132 25 20 94 30 94 14z m-6826 -55 c3
-13 6 -36 5 -53 l0 -30 -19 35 c-11 19 -19 43 -20 53 0 25 27 21 34 -5z m7966
-184 c25 -26 66 -60 93 -77 26 -16 52 -38 58 -49 10 -19 9 -20 -12 -13 -13 4
-55 12 -94 19 -69 12 -69 12 -81 51 -12 45 -26 160 -16 133 4 -9 27 -38 52
-64z m-6429 -2666 c37 -32 41 -45 23 -80 -27 -54 -64 -98 -77 -92 -7 2 -118
-18 -247 -45 -129 -27 -237 -48 -241 -46 -3 3 -9 39 -13 81 -7 74 -6 78 20
105 53 55 193 85 415 88 71 1 110 -3 120 -11z m1415 2 c99 -6 204 -17 234 -24
30 -8 76 -17 103 -21 l47 -7 0 -47 c0 -68 -20 -261 -30 -287 -10 -25 -5 -23
-250 -74 -102 -21 -202 -45 -222 -53 -20 -8 -117 -76 -217 -151 -221 -167
-236 -176 -285 -176 -32 0 -45 7 -76 39 -67 70 -218 391 -204 435 14 45 34 56
100 56 34 0 74 -4 88 -10 24 -9 25 -7 28 33 2 34 7 43 25 45 22 3 30 34 49
179 l6 52 77 6 c42 3 85 7 96 9 47 8 266 5 431 -4z m1385 -76 c-110 -116 -130
-144 -158 -221 -22 -60 -22 -65 -5 -50 31 28 31 20 1 -53 -36 -88 -139 -405
-139 -427 0 -73 -88 249 -111 406 -11 82 -8 317 6 352 17 43 174 74 399 78
l88 1 -81 -86z m-812 -217 c-13 -48 -52 -77 -100 -75 -38 1 -69 18 -69 38 0
47 51 86 120 92 46 4 61 -13 49 -55z m115 -539 c8 -13 25 -61 37 -108 15 -60
34 -105 67 -154 44 -66 45 -69 29 -95 -9 -15 -47 -42 -89 -63 -40 -20 -77 -41
-83 -45 -22 -19 -81 -37 -108 -34 -51 5 -157 63 -157 86 0 7 -6 15 -13 18 -7
2 -25 28 -40 56 -25 46 -27 54 -17 91 13 47 118 160 149 160 10 0 26 9 36 20
10 11 26 20 35 20 10 0 23 7 30 15 7 8 19 15 26 15 8 0 14 4 14 8 0 7 42 28
62 31 4 1 14 -9 22 -21z"/>
<path d="M9570 9640 c0 -18 -18 -44 -60 -85 -33 -33 -60 -62 -60 -65 0 -17
358 -285 367 -276 3 2 -20 46 -50 98 -30 51 -87 152 -126 223 -48 89 -71 122
-71 105z"/>
<path d="M10528 8713 c7 -3 16 -2 19 1 4 3 -2 6 -13 5 -11 0 -14 -3 -6 -6z"/>
<path d="M5540 9753 c0 -4 12 -20 27 -35 27 -28 53 -37 53 -18 0 6 -6 10 -14
10 -7 0 -25 11 -40 25 -14 13 -26 21 -26 18z"/>
<path d="M12146 9664 c-21 -19 -25 -25 -12 -23 10 2 25 14 34 27 19 28 14 27
-22 -4z"/>
<path d="M4476 8139 c-48 -4 -122 -15 -162 -24 l-74 -16 5 -47 c2 -26 10 -135
16 -242 6 -107 13 -197 15 -199 8 -9 286 50 376 80 251 82 356 210 286 349
-49 96 -180 124 -462 99z"/>
<path d="M8431 7920 c0 -3 -41 -125 -90 -271 -50 -147 -105 -313 -124 -371
l-34 -104 66 13 c36 7 98 13 136 14 39 0 91 4 116 7 l46 7 -53 335 c-53 339
-60 379 -63 370z"/>
<path d="M11362 7150 c0 -14 2 -19 5 -12 2 6 2 18 0 25 -3 6 -5 1 -5 -13z"/>
<path d="M5715 7090 c-48 -59 -140 -136 -215 -180 -30 -18 -56 -33 -58 -35 -7
-6 261 -194 269 -189 5 3 9 20 9 37 0 18 9 117 21 220 11 104 19 190 17 192
-2 2 -21 -18 -43 -45z"/>
<path d="M12142 6770 c0 -14 2 -19 5 -12 2 6 2 18 0 25 -3 6 -5 1 -5 -13z"/>
<path d="M9491 6763 c-1 -16 -7 -23 -21 -23 -25 0 -25 3 1 -84 12 -39 28 -93
35 -121 l13 -50 -6 70 c-14 170 -20 228 -22 208z"/>
<path d="M9521 6464 c0 -11 3 -14 6 -6 3 7 2 16 -1 19 -3 4 -6 -2 -5 -13z"/>
<path d="M3444 13071 c-40 -24 -76 -99 -80 -164 l-2 -51 -45 3 c-37 2 -48 -2
-61 -21 -22 -32 -20 -53 10 -85 l26 -28 -21 29 c-26 35 -27 58 -3 79 26 24 53
21 96 -8 20 -14 39 -25 41 -25 2 0 -1 14 -7 31 -27 78 18 210 78 225 60 15 92
-71 101 -271 4 -85 11 -139 20 -155 8 -14 11 -16 7 -5 -4 11 -8 85 -9 165 -1
167 -18 245 -61 279 -33 26 -50 26 -90 2z"/>
<path d="M3325 12645 c-5 -2 -22 -6 -38 -9 -65 -15 -84 -71 -45 -134 29 -47
87 -72 163 -70 l60 1 -67 7 c-74 7 -110 26 -139 73 -45 73 7 121 131 121 46 0
56 2 35 7 -32 7 -84 9 -100 4z"/>
<path d="M3465 12630 c-3 -5 1 -10 10 -10 9 0 13 5 10 10 -3 6 -8 10 -10 10
-2 0 -7 -4 -10 -10z"/>
<path d="M2202 12599 c-106 -18 -186 -66 -234 -140 l-31 -48 -25 19 c-28 23
-100 27 -135 9 -12 -6 -36 -25 -53 -41 l-31 -29 -34 20 c-41 25 -106 27 -137
5 -47 -33 -65 -104 -38 -153 12 -22 10 -27 -35 -71 -79 -79 -90 -172 -28 -224
17 -14 37 -26 45 -26 12 0 13 -8 9 -34 -9 -47 24 -120 67 -146 34 -20 102 -27
126 -11 7 4 -11 6 -41 3 -46 -4 -57 -1 -84 22 -54 45 -64 114 -25 174 14 21
13 22 -20 22 -35 0 -68 26 -82 64 -12 35 14 96 64 148 l49 51 -19 25 c-22 27
-26 63 -10 93 15 28 65 51 95 43 32 -8 71 -55 80 -95 l7 -32 32 56 c18 31 41
66 52 78 52 58 130 62 163 9 l17 -29 12 43 c24 92 127 146 277 146 93 0 172
-18 267 -62 l66 -30 69 28 c124 50 213 33 213 -41 0 -25 -8 -37 -37 -59 -35
-25 -36 -26 -11 -21 22 6 32 1 54 -22 74 -80 53 -198 -43 -233 l-41 -15 24
-29 c24 -27 25 -27 19 -5 -5 20 1 27 38 47 54 29 79 70 79 131 0 51 -18 95
-51 125 -18 17 -19 21 -6 39 31 44 9 108 -49 143 -39 24 -140 23 -208 0 -45
-16 -49 -16 -86 3 -85 44 -237 67 -330 50z"/>
<path d="M13523 12466 c-28 -24 -28 -25 -28 -148 0 -82 5 -130 13 -143 12 -19
13 -19 7 3 -10 36 -8 214 3 242 17 44 38 55 67 36 42 -28 65 -75 65 -135 l0
-54 23 21 c26 24 66 29 87 10 12 -11 12 -10 0 6 -11 14 -23 17 -51 13 l-37 -5
-6 51 c-6 40 -15 58 -45 89 -45 44 -60 47 -98 14z"/>
<path d="M14486 12185 c-33 -9 -82 -28 -111 -43 -43 -24 -56 -27 -90 -19 -22
5 -64 7 -94 4 -46 -3 -59 -9 -83 -36 -30 -34 -34 -56 -17 -94 9 -19 7 -30 -10
-58 -41 -67 -15 -155 53 -180 19 -7 37 -19 38 -26 2 -9 7 -7 16 7 11 18 10 20
-11 20 -33 0 -67 27 -83 67 -19 44 -4 104 32 132 25 19 25 20 5 31 -29 15 -28
64 1 84 29 20 77 20 149 0 56 -16 57 -16 96 10 91 60 248 91 338 66 48 -13
115 -75 115 -108 1 -12 5 -9 16 10 32 60 111 42 166 -37 l32 -45 21 42 c26 56
63 71 103 41 29 -22 39 -61 23 -91 -9 -17 -3 -27 39 -69 42 -42 50 -56 50 -87
0 -41 -28 -76 -61 -76 -20 0 -21 -1 -5 -25 26 -40 21 -92 -13 -126 -16 -16
-26 -29 -22 -29 13 0 49 44 60 72 6 16 8 41 5 56 -5 23 -1 32 21 46 62 41 54
119 -20 184 -41 36 -44 42 -35 67 32 84 -73 154 -147 98 l-28 -20 -34 26 c-43
32 -108 36 -140 7 -21 -19 -21 -19 -56 21 -65 76 -198 108 -319 78z"/>
<path d="M13690 12144 c61 -11 98 -25 104 -40 10 -27 -26 -87 -64 -106 -19
-10 -29 -18 -22 -18 27 0 72 31 87 60 33 64 6 101 -77 106 -29 1 -42 1 -28 -2z"/>
<path d="M13595 12130 c-3 -5 1 -10 10 -10 9 0 13 5 10 10 -3 6 -8 10 -10 10
-2 0 -7 -4 -10 -10z"/>
<path d="M4661 12089 c-1 -60 -46 -147 -90 -176 -62 -42 -158 -28 -231 33
l-35 29 22 -30 c68 -96 166 -129 251 -86 l38 19 23 -44 c28 -53 70 -80 143
-95 50 -10 55 -13 72 -55 42 -101 131 -174 214 -174 112 0 216 90 246 213 5
23 10 26 31 21 46 -11 129 22 174 71 22 24 41 47 41 49 0 3 -21 -7 -47 -22
-40 -22 -61 -27 -119 -27 -61 0 -77 4 -120 30 -28 18 -63 52 -82 80 l-34 50 7
-40 c12 -69 44 -124 89 -153 22 -14 43 -27 45 -29 2 -1 -2 -16 -9 -33 -54
-131 -192 -195 -295 -137 -39 22 -109 104 -118 139 -4 14 4 23 31 37 43 22 63
43 87 91 l18 34 -35 -37 c-96 -101 -244 -84 -319 37 -16 26 -16 32 -3 57 20
40 27 107 16 154 l-10 40 -1 -46z"/>
<path d="M2823 11995 c0 -22 2 -30 4 -17 2 12 2 30 0 40 -3 9 -5 -1 -4 -23z"/>
<path d="M13643 11973 c9 -2 25 -2 35 0 9 3 1 5 -18 5 -19 0 -27 -2 -17 -5z"/>
<path d="M1706 11761 c-17 -19 -17 -19 3 -14 17 4 21 1 21 -21 0 -62 63 -158
124 -191 26 -14 34 -24 29 -35 -3 -8 -8 -33 -11 -56 -3 -32 1 -47 20 -70 20
-23 23 -35 17 -62 -15 -73 26 -141 97 -162 38 -11 39 -13 39 -60 0 -58 24 -97
78 -123 91 -46 180 37 148 136 -9 27 -8 41 4 70 19 45 19 74 0 31 -8 -17 -20
-36 -28 -42 -13 -11 -12 -18 1 -56 15 -40 15 -45 -4 -77 -36 -62 -109 -65
-144 -6 -28 45 -25 85 9 139 l29 46 -31 -9 c-56 -16 -96 -11 -122 15 -42 42
-41 73 3 159 2 4 -5 7 -15 7 -31 0 -67 44 -59 74 6 25 42 66 58 66 4 0 8 4 8
9 0 5 -20 12 -44 15 -93 14 -196 121 -196 204 0 37 -9 40 -34 13z"/>
<path d="M14162 11680 c0 -19 2 -27 5 -17 2 9 2 25 0 35 -3 9 -5 1 -5 -18z"/>
<path d="M12693 11584 c2 -28 11 -65 20 -83 14 -29 15 -37 3 -60 -46 -87 -139
-114 -225 -65 l-46 27 29 -31 c15 -17 41 -36 57 -42 16 -7 29 -17 29 -22 0
-22 -42 -88 -75 -116 -30 -27 -44 -32 -86 -32 -27 0 -62 6 -77 14 -31 17 -74
61 -92 95 -11 22 -9 26 20 49 36 28 60 76 60 119 0 27 -1 27 -25 -12 -55 -91
-142 -115 -260 -69 -18 6 -17 4 4 -19 33 -36 101 -61 144 -53 31 6 35 4 41
-17 10 -43 66 -108 109 -128 112 -50 221 11 258 144 8 30 14 35 48 41 47 7 93
44 111 87 11 27 16 29 39 23 73 -22 151 6 185 66 l19 35 -29 -27 c-35 -33 -74
-48 -120 -48 -48 0 -100 50 -125 120 l-20 55 4 -51z"/>
<path d="M14180 11616 c0 -2 8 -10 18 -17 15 -13 16 -12 3 4 -13 16 -21 21
-21 13z"/>
<path d="M15050 11570 c0 -5 5 -10 11 -10 5 0 7 5 4 10 -3 6 -8 10 -11 10 -2
0 -4 -4 -4 -10z"/>
<path d="M15118 11543 c6 -2 18 -2 25 0 6 3 1 5 -13 5 -14 0 -19 -2 -12 -5z"/>
<path d="M15038 11513 c-10 -45 -71 -109 -124 -129 l-46 -17 27 -16 c46 -28
46 -83 0 -101 l-26 -10 20 -26 c27 -34 27 -64 0 -99 -19 -23 -28 -26 -69 -23
l-47 3 24 -32 c35 -45 34 -100 -2 -130 -34 -30 -51 -29 -86 6 -31 31 -35 51
-19 80 7 14 5 23 -10 36 -11 10 -21 30 -21 44 -2 23 -2 23 -6 4 -2 -12 2 -32
9 -45 7 -13 11 -43 9 -68 -3 -59 30 -95 86 -93 56 2 93 47 93 113 0 42 3 50
18 50 24 0 69 48 77 82 4 15 3 40 -3 56 -7 21 -6 33 4 47 16 22 19 86 4 101
-8 8 0 19 24 37 39 30 79 105 74 139 -3 20 -5 18 -10 -9z"/>
<path d="M2266 11257 c3 -10 9 -15 12 -12 3 3 0 11 -7 18 -10 9 -11 8 -5 -6z"/>
<path d="M3178 9438 c5 -5 16 -8 23 -6 8 3 3 7 -10 11 -17 4 -21 3 -13 -5z"/>
<path d="M11584 4148 c-60 -64 -119 -141 -213 -276 -54 -78 -66 -102 -52 -102
25 0 43 23 164 205 59 88 119 175 133 193 41 49 23 38 -32 -20z"/>
</g>
</svg>
