<?xml version="1.0" encoding="UTF-8" standalone="no"?>
<!-- Created with Inkscape (http://www.inkscape.org/) -->

<svg
   width="92.781403mm"
   height="57.760338mm"
   viewBox="0 0 92.781403 57.760338"
   version="1.1"
   id="svg4972"
   xml:space="preserve"
   inkscape:version="1.2.2 (b0a8486541, 2022-12-01)"
   sodipodi:docname="DevSky.svg"
   xmlns:inkscape="http://www.inkscape.org/namespaces/inkscape"
   xmlns:sodipodi="http://sodipodi.sourceforge.net/DTD/sodipodi-0.dtd"
   xmlns="http://www.w3.org/2000/svg"
   xmlns:svg="http://www.w3.org/2000/svg"
   xmlns:rdf="http://www.w3.org/1999/02/22-rdf-syntax-ns#"
   xmlns:cc="http://creativecommons.org/ns#"
   xmlns:dc="http://purl.org/dc/elements/1.1/"><sodipodi:namedview
     id="namedview4974"
     pagecolor="#505050"
     bordercolor="#eeeeee"
     borderopacity="1"
     inkscape:showpageshadow="0"
     inkscape:pageopacity="0"
     inkscape:pagecheckerboard="0"
     inkscape:deskcolor="#505050"
     inkscape:document-units="px"
     showgrid="false"
     inkscape:zoom="1.0255231"
     inkscape:cx="-177.95797"
     inkscape:cy="198.92288"
     inkscape:window-width="1920"
     inkscape:window-height="1002"
     inkscape:window-x="0"
     inkscape:window-y="0"
     inkscape:window-maximized="1"
     inkscape:current-layer="svg4972" /><defs
     id="defs4969" /><path
     id="light_blue"
     style="display:inline;fill:#a5b4fc;stroke-width:0.264583;fill-opacity:1"
     inkscape:label="light_blue"
     d="M 109.27495 109.87734 C 85.697075 109.98227 73.273319 135.71741 85.355477 154.20125 L 89.711283 153.51705 C 80.224604 138.23871 87.10608 111.00541 114.81001 110.3078 C 112.90498 110.00831 111.05815 109.86941 109.27495 109.87734 z M 139.97437 110.79408 C 136.03051 110.81228 131.79457 111.29991 127.96838 111.93664 C 138.30079 110.40934 147.95153 112.59537 147.96303 118.25719 C 150.22642 118.76707 152.57949 119.33875 154.28409 120.90199 C 155.91289 112.98614 148.65083 110.75406 139.97437 110.79408 z M 115.16761 113.44301 C 109.75463 113.45941 104.77755 115.11578 101.58808 116.99938 C 108.27127 114.42333 115.29477 113.12493 123.90455 117.7735 C 118.9821 124.46985 111.93668 126.82341 104.36155 128.0938 C 111.86681 128.22376 119.18873 126.46266 125.9685 119.0959 C 128.71822 121.15274 131.01062 123.4144 132.51539 126.02932 C 124.10445 135.9357 112.48296 140.83336 98.137126 137.41364 C 109.73421 141.78699 121.70562 141.44266 134.51475 130.54429 C 135.10344 131.76995 135.23493 132.38619 135.48213 133.15654 L 138.54603 130.70604 C 133.11618 117.38362 123.61187 113.4174 115.16761 113.44301 z M 148.38212 120.15991 A 6.9659572 6.9659572 0 0 0 141.41614 127.1259 A 6.9659572 6.9659572 0 0 0 141.95822 129.80997 C 135.96658 135.69112 128.63829 140.68551 120.08256 145.00232 C 121.35432 146.60408 121.71633 147.76701 122.10052 148.89098 C 130.68511 144.327 138.98823 139.51411 145.26397 133.35136 A 6.9659572 6.9659572 0 0 0 148.38212 134.09188 A 6.9659572 6.9659572 0 0 0 155.3481 127.1259 A 6.9659572 6.9659572 0 0 0 148.38212 120.15991 z M 76.948755 134.8014 C 66.232951 142.8673 56.080967 154.10463 67.790141 160.05309 C 67.562437 157.70895 67.806252 155.52211 69.628271 153.86122 C 67.345379 151.84684 63.503793 146.7986 76.948755 134.8014 z M 139.58369 140.3592 C 135.2603 143.97476 130.30535 146.59782 125.39954 149.29819 L 135.04547 145.76352 C 134.27453 148.59103 133.00218 151.28177 130.89533 153.74494 C 127.00735 155.45468 123.26672 156.28091 119.49345 157.30235 L 128.02212 156.48173 C 120.54749 163.27433 111.79525 164.51118 101.88832 160.72333 C 113.84605 167.7862 138.35563 164.09643 139.58369 140.3592 z M 113.27264 142.77662 A 7.5132546 7.5132546 0 0 0 105.75888 150.28986 A 7.5132546 7.5132546 0 0 0 105.80022 151.03038 C 96.626131 154.33678 91.150872 155.39011 82.486401 156.13343 A 6.9659572 6.9659572 0 0 0 75.949333 151.57143 A 6.9659572 6.9659572 0 0 0 68.98335 158.53742 A 6.9659572 6.9659572 0 0 0 75.949333 165.5034 A 6.9659572 6.9659572 0 0 0 82.368062 161.24216 C 90.49866 160.77072 98.977031 158.59406 107.52725 155.1247 A 7.5132546 7.5132546 0 0 0 113.27264 157.80361 A 7.5132546 7.5132546 0 0 0 120.78587 150.28986 A 7.5132546 7.5132546 0 0 0 113.27264 142.77662 z M 96.187374 160.72333 L 92.105453 161.65816 C 98.296892 165.81917 105.37259 168.92025 115.08493 167.1095 C 107.98403 166.98091 101.23214 165.41512 96.187374 160.72333 z "
     transform="translate(-62.566688,-109.87682)" /><metadata
     id="metadata10619"><rdf:RDF><cc:Work
         rdf:about=""><dc:creator><cc:Agent><dc:title>FlawCra</dc:title></cc:Agent></dc:creator></cc:Work></rdf:RDF></metadata></svg>
