<?xml version="1.0" encoding="UTF-8" standalone="no"?>
<svg
    version="1.1"
    id="Layer_1"
    x="0px"
    y="0px"
    width="100%"
    viewBox="0 0 2614 804"
    enable-background="new 0 0 2614 804"
    xml:space="preserve"
    sodipodi:docname="tcpshield.svg"
    inkscape:export-filename="tcpshield.svg"
    inkscape:export-xdpi="96"
    inkscape:export-ydpi="96"
    inkscape:version="1.2.2 (b0a8486541, 2022-12-01)"
    xmlns:inkscape="http://www.inkscape.org/namespaces/inkscape"
    xmlns:sodipodi="http://sodipodi.sourceforge.net/DTD/sodipodi-0.dtd"
    xmlns="http://www.w3.org/2000/svg"
    xmlns:svg="http://www.w3.org/2000/svg"><defs
   id="defs106" /><sodipodi:namedview
    id="namedview104"
    pagecolor="#505050"
    bordercolor="#eeeeee"
    borderopacity="1"
    inkscape:showpageshadow="0"
    inkscape:pageopacity="0"
    inkscape:pagecheckerboard="0"
    inkscape:deskcolor="#505050"
    showgrid="false"
    inkscape:zoom="0.35463542"
    inkscape:cx="1473.3441"
    inkscape:cy="685.21074"
    inkscape:window-width="1920"
    inkscape:window-height="1002"
    inkscape:window-x="0"
    inkscape:window-y="0"
    inkscape:window-maximized="1"
    inkscape:current-layer="Layer_1" />

    <path
        fill="#FFFFFF"
        opacity="1.000000"
        stroke="none"
        d=" M613.003357,527.946899   C607.976318,536.589478 603.258728,545.035828 597.935120,553.081238   C585.389160,572.041565 572.934998,591.082947 559.713135,609.569031   C549.514221,623.828613 538.410278,637.461670 527.317627,651.054016   C519.847473,660.207581 511.936035,669.033325 503.794678,677.599609   C490.062347,692.048706 476.373627,706.576843 461.956421,720.327148   C446.980042,734.610901 431.457367,748.363525 415.615204,761.684387   C403.336121,772.009216 390.169922,781.276184 377.469208,791.105347   C375.525452,792.609558 374.300720,792.701965 372.221344,791.092285   C358.894531,780.776062 345.255371,770.859558 332.018829,760.430969   C305.736023,739.723816 281.997070,716.218079 258.860138,692.153320   C246.135635,678.918518 234.400574,664.724487 222.367828,650.834351   C199.191956,624.080872 178.283173,595.609680 159.369858,565.721863   C149.317703,549.837036 139.784439,533.590271 130.748810,517.105713   C122.641762,502.315338 115.214104,487.126770 108.060387,471.845337   C95.609016,445.247345 85.368546,417.776123 77.006699,389.614624   C76.321861,387.308197 75.716476,384.976593 74.965439,382.692413   C74.759850,382.067108 74.158966,381.571747 73.739471,381.016785   C73.156548,381.572632 72.313889,382.019470 72.028229,382.700073   C61.439590,407.929077 53.006706,433.770386 47.824718,460.741150   C43.794441,481.717590 42.042477,502.783417 43.146488,523.986328   C44.312977,546.389282 49.632896,568.097168 59.280113,588.357849   C68.765984,608.279541 82.058533,625.776978 98.832390,640.139404   C123.639732,661.380432 152.276215,675.995117 183.602386,684.829224   C202.316727,690.106812 221.515808,693.664001 240.488312,698.032104   C241.546600,698.275696 242.525482,698.864258 243.331039,700.255310   C240.289490,699.837585 237.252899,699.378357 234.205017,699.013611   C230.963791,698.625732 227.639099,698.649475 224.476913,697.935242   C208.781387,694.390381 192.821182,691.619141 177.542755,686.734558   C161.413635,681.577942 145.617935,675.048645 130.273392,667.847290   C108.909691,657.821045 90.733925,643.080627 75.121025,625.469238   C56.490520,604.453918 44.572395,579.751831 38.378849,552.486267   C35.939968,541.749695 35.200588,530.601929 34.072895,519.601868   C33.350601,512.556213 32.597870,505.380005 33.153625,498.364899   C34.298634,483.911804 36.187477,469.511871 37.996502,455.118530   C40.558052,434.737854 46.499138,415.164398 53.082809,395.817749   C57.103176,384.003571 61.645016,372.320801 66.778160,360.951721   C69.180008,355.631989 66.437134,351.385223 65.754494,346.883484   C63.309387,330.759277 59.645947,314.821777 57.109447,298.708801   C55.208542,286.633362 53.868462,274.425934 53.101292,262.225525   C51.772835,241.098846 51.081875,219.932053 50.131706,198.962814   C72.673996,191.096329 94.242256,183.512558 115.849991,176.042984   C146.895432,165.310898 177.989426,154.718933 209.015961,143.932785   C215.785843,141.579285 222.747162,139.333252 228.900513,135.788300   C233.920258,132.896423 237.712234,127.949066 242.315399,124.244637   C258.277435,111.399063 274.134216,98.406494 290.442169,86.010750   C314.643585,67.615120 340.938202,52.632057 368.516510,39.894047   C389.714691,30.102917 411.646729,22.637606 434.574463,17.873568   C452.853882,14.075379 471.251770,12.084307 489.805756,13.145191   C508.236298,14.199020 526.222351,17.833815 543.536255,24.798220   C567.385376,34.391369 587.752930,48.832726 605.015747,67.648415   C616.096069,79.725517 625.703247,92.971588 633.767822,107.306480   C646.173645,129.357956 656.370361,152.392838 663.080322,176.767670   C665.398132,185.187653 669.148621,189.933624 677.873047,191.625031   C684.091309,192.830582 690.030212,195.647644 695.949097,198.095413   C697.276001,198.644180 698.876709,200.660110 698.866089,201.988693   C698.740967,217.576202 698.734375,233.183563 697.878723,248.740707   C697.115906,262.609375 695.867859,276.499084 693.888916,290.243469   C689.403809,321.394073 683.276367,352.191956 674.381592,382.474823   C666.639587,408.833282 657.538208,434.635712 646.573547,459.778473   C640.414429,473.901855 633.747009,487.813385 626.963074,501.650970   C622.648987,510.450806 617.701050,518.939941 613.003357,527.946899  M365.654572,736.970642   C367.307678,738.283630 368.936615,739.628540 370.619659,740.901978   C373.077637,742.761719 375.476440,743.691467 378.283478,741.240112   C396.055450,725.719910 414.218231,710.628418 431.585236,694.669800   C443.174774,684.020203 453.961487,672.443176 464.565674,660.788269   C479.020782,644.900818 493.369141,628.879944 506.995026,612.285522   C518.598816,598.153748 529.421997,583.347778 540.042603,568.449585   C555.934692,546.156921 570.142273,522.810852 583.160889,498.688049   C597.217773,472.641541 610.207886,446.124786 620.163757,418.264435   C627.491577,397.758301 634.265320,377.013763 640.230042,356.074707   C644.414001,341.387238 647.192444,326.260498 649.910156,311.205658   C652.417480,297.316589 654.054565,283.268372 655.972351,269.276215   C656.549622,265.064423 656.856506,260.810791 657.160156,256.567261   C657.816650,247.390060 658.485291,238.210861 658.860657,229.020721   C658.900391,228.047546 657.204834,226.478760 656.007446,226.056366   C624.579712,214.969971 593.109497,204.004120 561.650818,193.005463   C538.815491,185.021729 516.023743,176.911469 493.145813,169.051865   C454.962463,155.934097 416.739838,142.929749 378.477509,130.044693   C376.093872,129.241989 372.980408,129.173370 370.615295,129.972702   C349.368530,137.153519 328.213928,144.606873 307.031189,151.977112   C284.033356,159.978897 261.051941,168.028290 238.031662,175.965088   C205.924820,187.034668 173.767258,197.957336 141.674454,209.067307   C126.837860,214.203461 112.092606,219.604736 97.326866,224.943695   C90.314415,227.479233 90.419296,227.534668 90.978561,235.249817   C91.727234,245.577621 91.884094,255.968933 93.101021,266.237488   C95.049248,282.676971 97.423141,299.075928 100.045540,315.423279   C103.924622,339.604584 110.336998,363.179535 117.827232,386.477783   C129.141129,421.669434 143.011703,455.795502 160.766693,488.242950   C171.023972,506.988190 181.142456,525.876648 192.630783,543.865662   C211.128799,572.830994 231.271866,600.691467 254.041763,626.530151   C267.617859,641.935913 281.061127,657.476746 295.129944,672.424316   C305.581238,683.528381 316.942078,693.776367 327.896912,704.406616   C328.255371,704.754456 328.584015,705.135681 328.961304,705.460999   C340.987854,715.831726 353.018677,726.197449 365.654572,736.970642  M380.313934,61.964336   C376.734283,63.343002 372.930969,64.319527 369.611481,66.165894   C348.825897,77.727249 328.057953,89.326981 307.487854,101.265030   C300.996338,105.032433 295.130249,109.877441 288.977905,114.229256   C290.809753,114.852463 292.188599,114.605255 293.497528,114.154831   C319.398682,105.241714 345.271332,96.244759 371.221680,87.477669   C373.516327,86.702446 376.538147,86.725601 378.830994,87.514725   C396.247589,93.508827 413.531616,99.886604 430.923218,105.954987   C469.336182,119.358292 507.791901,132.638870 546.222412,145.991852   C570.129456,154.298538 594.013550,162.671707 617.933350,170.941345   C620.782715,171.926422 623.792725,172.446793 627.286499,173.322464   C620.633179,152.959213 612.620667,134.456512 602.444336,116.886627   C591.125488,97.344147 577.057617,80.084892 558.940857,66.590691   C535.585022,49.194160 508.751495,40.777477 479.868011,40.270824   C466.074829,40.028877 452.157806,42.152420 438.427734,44.118401   C418.450470,46.978909 399.503357,53.652256 380.313934,61.964336  z"
        id="path73"
        inkscape:export-filename="./tcpshield_logo.svg"
        inkscape:export-xdpi="96"
        inkscape:export-ydpi="96"
        style="fill:#a5b4fc;fill-opacity:1" />
    <path
        fill="#FFFFFF"
        opacity="1.000000"
        stroke="none"
        d=" M2398.000000,396.000000   C2398.000000,370.531586 2398.000000,345.563171 2398.000000,320.244293   C2399.607178,320.156525 2401.040283,320.010315 2402.473389,320.009918   C2447.451172,319.997864 2492.437256,319.489563 2537.403076,320.224335   C2558.555420,320.570007 2574.708740,331.677246 2578.961670,355.334381   C2579.593994,358.852661 2579.953369,362.471008 2579.957275,366.043610   C2580.018799,420.849792 2580.432373,475.661072 2579.799805,530.460022   C2579.523682,554.376465 2563.715820,570.848389 2541.088379,571.718872   C2505.065430,573.104797 2468.972168,572.691772 2432.908447,572.985413   C2421.444336,573.078796 2409.979004,573.000000 2398.000000,573.000000   C2398.000000,513.982666 2398.000000,455.241333 2398.000000,396.000000  M2529.000000,517.136902   C2529.000000,469.834229 2529.003906,422.531525 2528.995361,375.228851   C2528.994141,368.975067 2527.047119,367.009430 2520.844482,367.005524   C2498.525635,366.991425 2476.206787,366.995209 2453.887939,367.012634   C2452.627686,367.013611 2451.367432,367.196930 2450.295898,367.280640   C2450.295898,420.370483 2450.295898,473.085083 2450.295898,525.999573   C2473.889893,525.999573 2497.192627,526.239502 2520.484131,525.845703   C2527.033203,525.735046 2528.370605,523.486816 2529.000000,517.136902  z"
        id="path75"
        style="fill:#a5b4fc;fill-opacity:1" />
    <path
        fill="#FFFFFF"
        opacity="1.000000"
        stroke="none"
        d=" M1529.907593,474.001160   C1506.658936,469.000122 1483.765503,464.328827 1461.058716,458.880463   C1446.800293,455.459290 1433.591919,449.404633 1426.342285,435.579926   C1423.589722,430.330933 1421.581421,424.162109 1421.220093,418.290344   C1420.243530,402.414551 1419.834839,386.462830 1420.164917,370.561218   C1420.409058,358.800598 1421.566040,346.886810 1429.026733,336.880676   C1435.763428,327.845673 1444.934814,321.615082 1455.965454,321.244843   C1486.848389,320.208313 1517.770386,320.344543 1548.676636,319.992981   C1557.584595,319.891693 1565.940063,321.833801 1573.890381,325.949554   C1586.044800,332.241638 1592.381348,342.996277 1593.681030,355.695007   C1595.088501,369.445953 1594.000000,383.452362 1594.000000,397.676575   C1578.454956,397.676575 1562.050049,397.676575 1545.000000,397.676575   C1545.000000,390.109833 1545.006714,382.353302 1544.997925,374.596802   C1544.990479,367.945221 1543.274048,366.048584 1536.691284,366.024384   C1517.861206,365.955170 1499.029175,365.854523 1480.201416,366.075012   C1473.135620,366.157715 1471.851074,368.951508 1471.949585,374.205872   C1472.127686,383.701019 1471.991211,393.201843 1472.003418,402.700317   C1472.010620,408.357117 1474.052246,411.518219 1479.752319,412.933411   C1491.456055,415.839050 1503.288452,418.221985 1515.018555,421.026703   C1532.679077,425.249390 1550.541748,428.854065 1567.868530,434.184113   C1587.526489,440.231232 1599.088013,454.878357 1599.011841,476.630463   C1598.951904,493.794159 1599.071289,510.958618 1598.978149,528.122009   C1598.900879,542.366577 1594.032837,554.661133 1582.717041,563.634949   C1576.465576,568.592651 1568.877075,571.709167 1560.914185,571.870483   C1529.010864,572.517090 1497.092285,573.144165 1465.190186,572.793945   C1449.746704,572.624390 1435.442505,567.443481 1427.098022,553.223877   C1423.473511,547.047180 1420.859741,539.548645 1420.307007,532.454102   C1419.250977,518.896057 1420.000488,505.197418 1420.000488,491.279114   C1436.635498,491.279114 1453.039551,491.279114 1470.000000,491.279114   C1470.000000,500.161133 1469.997192,509.094574 1470.000854,518.028015   C1470.003418,524.595215 1471.445312,525.999023 1478.183350,525.999512   C1498.846680,526.000916 1519.510010,526.002014 1540.173340,525.998779   C1546.094238,525.997864 1547.974365,524.117188 1547.991943,518.053162   C1548.020996,508.054840 1548.002197,498.056396 1547.999268,488.058014   C1547.997192,480.816498 1545.393799,477.611755 1538.291626,475.991791   C1535.629028,475.384460 1532.990967,474.668640 1529.907593,474.001160  z"
        id="path77"
        style="fill:#a5b4fc;fill-opacity:1" />
    <path
        fill="#FFFFFF"
        opacity="1.000000"
        stroke="none"
        d=" M1791.052368,320.000000   C1805.849487,320.000000 1820.154907,320.000000 1834.729492,320.000000   C1834.729492,404.317657 1834.729492,488.383392 1834.729492,572.724731   C1817.689209,572.724731 1800.618164,572.724731 1783.148193,572.724731   C1783.148193,537.684998 1783.148193,502.613770 1783.148193,467.272217   C1754.682739,467.272217 1726.612671,467.272217 1698.144409,467.272217   C1698.144409,502.318878 1698.144409,537.390076 1698.144409,572.729675   C1680.679077,572.729675 1663.608032,572.729675 1646.267822,572.729675   C1646.267822,488.676941 1646.267822,404.611237 1646.267822,320.272614   C1663.316284,320.272614 1680.387329,320.272614 1697.857422,320.272614   C1697.857422,353.320557 1697.857422,386.391998 1697.857422,419.730713   C1726.323120,419.730713 1754.393188,419.730713 1782.861694,419.730713   C1782.861694,386.675171 1782.861694,353.603729 1782.861694,320.000000   C1785.685791,320.000000 1788.123169,320.000000 1791.052368,320.000000  z"
        id="path79"
        style="fill:#a5b4fc;fill-opacity:1" />
    <path
        fill="#FFFFFF"
        opacity="1.000000"
        stroke="none"
        d=" M2012.001465,573.000000   C2006.191284,573.000000 2000.880615,573.000000 1995.285889,573.000000   C1995.285889,488.714264 1995.285889,404.649475 1995.285889,320.292175   C2050.275146,320.292175 2105.342529,320.292175 2160.705078,320.292175   C2160.705078,335.604248 2160.705078,351.009033 2160.705078,366.811768   C2122.724609,366.811768 2084.654297,366.811768 2046.292725,366.811768   C2046.292725,384.608459 2046.292725,402.013031 2046.292725,419.816467   C2076.945557,419.816467 2107.683594,419.816467 2138.709961,419.816467   C2138.709961,435.613983 2138.709961,451.018677 2138.709961,466.822235   C2108.048340,466.822235 2077.310059,466.822235 2046.286865,466.822235   C2046.286865,486.620239 2046.286865,506.024414 2046.286865,525.826416   C2084.289795,525.826416 2122.360107,525.826416 2160.714355,525.826416   C2160.714355,541.623230 2160.714355,557.027832 2160.714355,573.000000   C2111.350098,573.000000 2061.925781,573.000000 2012.001465,573.000000  z"
        id="path81"
        style="fill:#a5b4fc;fill-opacity:1" />
    <path
        fill="#FFFFFF"
        opacity="1.000000"
        stroke="none"
        d=" M2259.165039,525.999878   C2293.279541,526.000000 2326.907227,526.000000 2360.767090,526.000000   C2360.767090,541.730957 2360.767090,557.135498 2360.767090,572.770447   C2308.596191,572.770447 2256.526611,572.770447 2204.228516,572.770447   C2204.228516,488.594971 2204.228516,404.526825 2204.228516,320.229248   C2221.405273,320.229248 2238.476318,320.229248 2256.000000,320.229248   C2256.000000,322.115295 2256.000000,323.896851 2256.000000,325.678406   C2256.000000,390.841187 2255.985596,456.003998 2256.077637,521.166626   C2256.080322,522.930908 2254.243896,526.351379 2259.165039,525.999878  z"
        id="path83"
        style="fill:#a5b4fc;fill-opacity:1" />
    <path
        fill="#FFFFFF"
        opacity="1.000000"
        stroke="none"
        d=" M1272.000000,320.000000   C1293.665771,320.000000 1314.832275,320.102875 1335.997070,319.961029   C1348.500122,319.877228 1359.851807,323.381165 1368.988647,331.754272   C1376.156982,338.323547 1380.535278,347.240112 1380.850586,357.016022   C1381.637207,381.412750 1382.186768,405.842499 1381.781860,430.241577   C1381.577515,442.549652 1377.530518,454.034698 1367.787720,462.820374   C1361.280029,468.688843 1353.691162,472.382416 1345.254517,472.825592   C1327.873291,473.738495 1310.441650,473.802094 1293.028442,473.962677   C1274.883911,474.130005 1256.736572,474.000000 1238.191406,474.000000   C1238.191406,506.937195 1238.191406,539.676758 1238.191406,572.707336   C1229.393555,572.707336 1220.986938,572.707336 1212.288574,572.707336   C1212.288574,488.715179 1212.288574,404.645813 1212.288574,320.000000   C1231.974487,320.000000 1251.737305,320.000000 1272.000000,320.000000  M1356.000000,411.498413   C1355.667114,395.265839 1355.858765,378.999786 1354.825317,362.811951   C1354.077759,351.102142 1345.451904,344.235291 1333.645142,344.103271   C1305.166870,343.784790 1276.682495,344.000000 1248.200684,344.000000   C1244.915649,344.000000 1241.630615,344.000000 1238.196411,344.000000   C1238.196411,379.487610 1238.196411,414.543518 1238.196411,449.517181   C1238.678345,449.723633 1238.964600,449.953461 1239.250977,449.953705   C1270.897217,449.980225 1302.545288,450.186249 1334.188232,449.866760   C1342.485840,449.783020 1352.672852,444.231689 1354.039429,434.406708   C1355.048340,427.153046 1355.371338,419.803955 1356.000000,411.498413  z"
        id="path85"
        style="fill:#a5b4fc;fill-opacity:1" />
    <path
        fill="#FFFFFF"
        opacity="1.000000"
        stroke="none"
        d=" M1011.000000,385.000000   C1011.000000,431.661041 1011.092102,477.822418 1010.943359,523.982971   C1010.899353,537.639282 1018.793396,547.639282 1031.523071,548.040466   C1035.107300,548.153381 1038.677612,548.939514 1042.256348,548.955383   C1062.920044,549.046814 1083.585571,549.119812 1104.247437,548.898865   C1108.377197,548.854675 1112.721191,548.110413 1116.569702,546.646179   C1125.755493,543.151245 1129.571289,536.686035 1129.924438,526.869385   C1130.283813,516.883423 1130.034424,506.875519 1130.063843,496.877228   C1130.064209,496.744995 1130.225708,496.613251 1130.469604,496.240662   C1139.047729,496.240662 1147.785522,496.240662 1157.444458,496.240662   C1156.965088,506.694946 1156.163818,517.044189 1156.115845,527.396912   C1156.074951,536.218628 1154.080811,544.353455 1149.996338,552.076355   C1144.384521,562.686646 1135.171387,569.023499 1123.800293,570.748291   C1111.981201,572.541077 1099.865112,572.702820 1087.867310,572.914185   C1069.375244,573.239868 1050.869141,573.231995 1032.377319,572.898132   C1023.659546,572.740784 1015.111450,571.188721 1007.105896,567.079651   C995.018372,560.875305 988.570190,550.751892 986.096008,537.874756   C985.174744,533.079712 985.049927,528.077393 985.043518,523.169006   C984.973816,469.842224 984.644043,416.511810 985.174866,363.190216   C985.387817,341.800140 996.935242,324.559326 1021.272461,321.025818   C1024.984253,320.486908 1028.750854,320.055969 1032.493530,320.044312   C1059.156738,319.961212 1085.820801,319.897003 1112.483643,320.035004   C1131.264893,320.132202 1149.902344,330.999756 1154.052734,350.546173   C1155.360718,356.706696 1156.535522,362.974518 1156.878052,369.242035   C1157.357056,378.004303 1156.998779,386.812317 1156.998779,395.797546   C1147.873901,395.797546 1139.136230,395.797546 1130.000000,395.797546   C1130.000000,385.990051 1129.952759,376.369507 1130.011475,366.749603   C1130.093506,353.288849 1121.203491,344.055145 1107.208984,344.017609   C1083.378662,343.953644 1059.546875,344.146301 1035.718140,343.948517   C1019.871826,343.817017 1010.702148,353.025818 1010.984558,368.501556   C1011.081848,373.832703 1011.000000,379.167114 1011.000000,385.000000  z"
        id="path87"
        style="fill:#a5b4fc;fill-opacity:1" />
    <path
        fill="#FFFFFF"
        opacity="1.000000"
        stroke="none"
        d=" M1941.000000,363.000000   C1941.000000,433.139648 1941.000000,502.779327 1941.000000,572.709351   C1923.720215,572.709351 1906.648560,572.709351 1889.287720,572.709351   C1889.287720,488.715698 1889.287720,404.648621 1889.287720,320.290649   C1906.279663,320.290649 1923.351440,320.290649 1941.000000,320.290649   C1941.000000,334.306885 1941.000000,348.403442 1941.000000,363.000000  z"
        id="path89"
        style="fill:#a5b4fc;fill-opacity:1" />
    <path
        fill="#FFFFFF"
        opacity="1.000000"
        stroke="none"
        d=" M876.000000,420.000000   C876.000000,471.139557 876.000000,521.779114 876.000000,572.709167   C867.390259,572.709167 858.984192,572.709167 850.183228,572.709167   C850.183228,496.717041 850.183228,420.650665 850.183228,344.186951   C824.725098,344.186951 799.652588,344.186951 774.291138,344.186951   C774.291138,336.058075 774.291138,328.318298 774.291138,320.287720   C832.950623,320.287720 891.684448,320.287720 950.709351,320.287720   C950.709351,327.942963 950.709351,335.682617 950.709351,343.823730   C926.047791,343.823730 901.308594,343.823730 876.000000,343.823730   C876.000000,369.311646 876.000000,394.405823 876.000000,420.000000  z"
        id="path91"
        style="fill:#a5b4fc;fill-opacity:1" />




    <path
        fill="#FFFFFF"
        opacity="1.000000"
        stroke="none"
        d=" M326.000000,584.000000   C326.000000,506.200409 326.000000,428.900787 326.000000,351.208130   C259.408356,351.208130 193.006500,351.208130 126.742371,351.208130   C118.941307,328.813812 109.949860,269.184265 110.289665,254.227936   C286.342651,254.227936 462.401031,254.227936 639.188171,254.227936   C638.760559,260.626373 638.616943,266.988373 637.846008,273.273407   C636.820068,281.637451 635.375244,289.953186 633.982910,298.268341   C632.353882,307.996490 630.746399,317.733154 628.826660,327.405975   C627.481323,334.184357 625.348389,340.811829 624.132874,347.607880   C623.605774,350.554901 622.381165,351.181183 619.893372,351.011139   C618.898254,350.943115 617.894592,351.000000 616.894775,351.000000   C554.240417,351.000000 491.586060,351.000000 428.931702,351.000000   C427.127350,351.000000 425.323029,351.000000 423.000000,351.000000   C423.000000,353.034729 423.000000,354.806671 423.000000,356.578613   C423.000000,462.224518 422.986786,567.870422 423.064606,673.516296   C423.066895,676.646118 422.359497,678.662048 419.850769,680.873108   C407.739075,691.547546 395.951538,702.589355 384.020599,713.469604   C381.970673,715.338928 379.966034,717.384338 377.586609,718.716431   C376.254517,719.462219 373.641968,719.641968 372.556305,718.820862   C366.580780,714.301270 360.760437,709.550049 355.146881,704.584351   C346.020172,696.510803 336.988007,688.321167 328.190277,679.894165   C326.741882,678.506836 326.099609,675.659119 326.089813,673.481812   C325.956299,643.821655 326.000000,614.160767 326.000000,584.000000  z"
        id="path101"
        style="fill:#a5b4fc;fill-opacity:1" />
</svg>
